<?xml version="1.0" encoding="UTF-8"?>
<svg xmlns="http://www.w3.org/2000/svg" xmlns:xlink="http://www.w3.org/1999/xlink" width="30px" height="30px" viewBox="0 0 30 30" version="1.1">
<g id="surface1">
<path style=" stroke:none;fill-rule:nonzero;fill:rgb(56.470588%,87.45098%,66.666667%);fill-opacity:1;" d="M 30 15 C 30 23.285156 23.285156 30 15 30 C 6.714844 30 0 23.285156 0 15 C 0 6.714844 6.714844 0 15 0 C 23.285156 0 30 6.714844 30 15 Z M 30 15 "/>
<path style=" stroke:none;fill-rule:nonzero;fill:rgb(90.196078%,91.372549%,93.333333%);fill-opacity:1;" d="M 22.347656 15.875 C 22.152344 15.875 21.980469 16.003906 21.9375 16.195312 C 21.902344 16.371094 21.878906 16.5625 21.878906 16.757812 C 21.878906 17.726562 22.359375 18.511719 22.960938 18.511719 C 23.558594 18.511719 24.042969 17.726562 24.042969 16.757812 C 24.042969 16.5625 24.023438 16.371094 23.980469 16.195312 C 23.941406 16.003906 23.769531 15.875 23.574219 15.875 Z M 22.347656 15.875 "/>
<path style=" stroke:none;fill-rule:nonzero;fill:rgb(90.196078%,91.372549%,93.333333%);fill-opacity:1;" d="M 19.28125 13.484375 C 19.085938 13.484375 18.914062 13.617188 18.875 13.804688 C 18.835938 13.984375 18.8125 14.175781 18.8125 14.371094 C 18.8125 15.339844 19.296875 16.121094 19.894531 16.121094 C 20.496094 16.121094 20.976562 15.339844 20.976562 14.371094 C 20.976562 14.175781 20.957031 13.984375 20.917969 13.804688 C 20.875 13.617188 20.703125 13.484375 20.507812 13.484375 Z M 19.28125 13.484375 "/>
<path style=" stroke:none;fill-rule:nonzero;fill:rgb(90.196078%,91.372549%,93.333333%);fill-opacity:1;" d="M 7.652344 15.875 C 7.847656 15.875 8.019531 16.003906 8.0625 16.195312 C 8.097656 16.371094 8.121094 16.5625 8.121094 16.757812 C 8.121094 17.726562 7.640625 18.511719 7.039062 18.511719 C 6.445312 18.511719 5.957031 17.726562 5.957031 16.757812 C 5.957031 16.5625 5.976562 16.371094 6.019531 16.195312 C 6.058594 16.003906 6.230469 15.875 6.425781 15.875 Z M 7.652344 15.875 "/>
<path style=" stroke:none;fill-rule:nonzero;fill:rgb(90.196078%,91.372549%,93.333333%);fill-opacity:1;" d="M 10.71875 13.484375 C 10.914062 13.484375 11.085938 13.617188 11.125 13.804688 C 11.164062 13.984375 11.1875 14.175781 11.1875 14.371094 C 11.1875 15.339844 10.703125 16.121094 10.105469 16.121094 C 9.511719 16.121094 9.023438 15.339844 9.023438 14.371094 C 9.023438 14.175781 9.042969 13.984375 9.082031 13.804688 C 9.125 13.617188 9.296875 13.484375 9.492188 13.484375 Z M 10.71875 13.484375 "/>
<path style=" stroke:none;fill-rule:nonzero;fill:rgb(19.607843%,29.019608%,36.862745%);fill-opacity:1;" d="M 25.222656 18.367188 L 15 9.980469 L 15 17.324219 L 25.222656 20.359375 Z M 25.222656 18.367188 "/>
<path style=" stroke:none;fill-rule:nonzero;fill:rgb(19.607843%,29.019608%,36.862745%);fill-opacity:1;" d="M 4.777344 18.367188 L 15 9.980469 L 15 17.324219 L 4.777344 20.359375 Z M 4.777344 18.367188 "/>
<path style=" stroke:none;fill-rule:nonzero;fill:rgb(19.607843%,29.019608%,36.862745%);fill-opacity:1;" d="M 19.296875 24.984375 L 15 20.453125 L 15 24.421875 L 19.296875 26.066406 Z M 19.296875 24.984375 "/>
<path style=" stroke:none;fill-rule:nonzero;fill:rgb(19.607843%,29.019608%,36.862745%);fill-opacity:1;" d="M 10.703125 24.984375 L 15 20.453125 L 15 24.421875 L 10.703125 26.066406 Z M 10.703125 24.984375 "/>
<path style=" stroke:none;fill-rule:nonzero;fill:rgb(100%,100%,100%);fill-opacity:1;" d="M 17.671875 10.324219 C 17.671875 16.222656 16.472656 26.816406 15 26.816406 C 13.519531 26.816406 12.328125 16.21875 12.328125 10.324219 C 12.328125 4.433594 15 3.179688 15 3.179688 C 15 3.179688 17.671875 4.433594 17.671875 10.324219 Z M 17.671875 10.324219 "/>
<path style=" stroke:none;fill-rule:nonzero;fill:rgb(51.764706%,85.882353%,100%);fill-opacity:1;" d="M 16.652344 7.929688 C 16.652344 8.164062 16.605469 8.375 16.519531 8.578125 C 16.269531 7.984375 15.683594 7.566406 14.992188 7.566406 C 14.3125 7.566406 13.722656 7.984375 13.46875 8.578125 C 13.382812 8.382812 13.335938 8.164062 13.335938 7.929688 C 13.335938 7.015625 14.074219 6.277344 14.988281 6.277344 C 15.914062 6.277344 16.652344 7.015625 16.652344 7.929688 Z M 16.652344 7.929688 "/>
<path style=" stroke:none;fill-rule:nonzero;fill:rgb(51.764706%,85.882353%,100%);fill-opacity:1;" d="M 14.828125 21.671875 L 15.171875 21.671875 L 15.171875 25.246094 L 14.828125 25.246094 Z M 14.828125 21.671875 "/>
</g>
</svg>
