<?xml version="1.0" encoding="iso-8859-1"?>
<!-- Generator: Adobe Illustrator 19.0.0, SVG Export Plug-In . SVG Version: 6.00 Build 0)  -->
<svg version="1.1" id="Layer_1" xmlns="http://www.w3.org/2000/svg" xmlns:xlink="http://www.w3.org/1999/xlink" x="0px" y="0px"
	 viewBox="0 0 505 505" style="enable-background:new 0 0 505 505;" xml:space="preserve">
<circle style="fill:#324A5E;" cx="252.5" cy="252.5" r="252.5"/>
<path style="fill:#FF7058;" d="M379.9,418.3H125.1c-2.6,0-4.7-2.1-4.7-4.7v-323c0-2.6,2.1-4.7,4.7-4.7H380c2.6,0,4.7,2.1,4.7,4.7
	v323C384.6,416.2,382.5,418.3,379.9,418.3z"/>
<polygon style="fill:#FFFFFF;" points="146.4,105 146.4,367.8 321.6,367.8 321.6,330.8 358.6,330.8 358.6,105 "/>
<path style="fill:#CED5E0;" d="M273.3,75.3V68c0-11.5-9.3-20.8-20.8-20.8c-11.5,0-20.8,9.3-20.8,20.8v7.3H195v42.6h115.1V75.3H273.3
	z"/>
<circle style="fill:#324A5E;" cx="252.5" cy="68.1" r="10.4"/>
<path style="fill:#4CDBC4;" d="M288.6,180.7c0,22-17.8,39.8-39.8,39.8S209,202.7,209,180.7s17.8-39.8,39.8-39.8v39.8H288.6z"/>
<path style="fill:#84DBFF;" d="M295.9,173.4h-39.8v-39.8C278.1,133.7,295.9,151.5,295.9,173.4z"/>
<g>
	<polygon style="fill:#E6E9EE;" points="321.6,367.8 358.6,330.8 321.6,330.8 	"/>
	<rect x="168.1" y="267.9" style="fill:#E6E9EE;" width="168.8" height="10.1"/>
	<rect x="168.1" y="239.8" style="fill:#E6E9EE;" width="168.8" height="10.1"/>
	<rect x="168.1" y="296.1" style="fill:#E6E9EE;" width="168.8" height="10.1"/>
</g>
<g>
</g>
<g>
</g>
<g>
</g>
<g>
</g>
<g>
</g>
<g>
</g>
<g>
</g>
<g>
</g>
<g>
</g>
<g>
</g>
<g>
</g>
<g>
</g>
<g>
</g>
<g>
</g>
<g>
</g>
</svg>
