<?xml version="1.0" encoding="UTF-8"?>
<svg xmlns="http://www.w3.org/2000/svg" xmlns:xlink="http://www.w3.org/1999/xlink" width="30px" height="30px" viewBox="0 0 30 30" version="1.1">
<g id="surface1">
<path style=" stroke:none;fill-rule:nonzero;fill:rgb(19.607843%,29.019608%,36.862745%);fill-opacity:1;" d="M 30 15 C 30 23.285156 23.285156 30 15 30 C 6.714844 30 0 23.285156 0 15 C 0 6.714844 6.714844 0 15 0 C 23.285156 0 30 6.714844 30 15 Z M 30 15 "/>
<path style=" stroke:none;fill-rule:nonzero;fill:rgb(100%,43.921569%,34.509804%);fill-opacity:1;" d="M 22.566406 24.847656 L 7.433594 24.847656 C 7.277344 24.847656 7.152344 24.726562 7.152344 24.570312 L 7.152344 5.382812 C 7.152344 5.226562 7.277344 5.101562 7.433594 5.101562 L 22.574219 5.101562 C 22.730469 5.101562 22.851562 5.226562 22.851562 5.382812 L 22.851562 24.570312 C 22.847656 24.726562 22.722656 24.847656 22.566406 24.847656 Z M 22.566406 24.847656 "/>
<path style=" stroke:none;fill-rule:nonzero;fill:rgb(100%,100%,100%);fill-opacity:1;" d="M 8.695312 6.238281 L 8.695312 21.847656 L 19.105469 21.847656 L 19.105469 19.652344 L 21.304688 19.652344 L 21.304688 6.238281 Z M 8.695312 6.238281 "/>
<path style=" stroke:none;fill-rule:nonzero;fill:rgb(80.784314%,83.529412%,87.843137%);fill-opacity:1;" d="M 16.234375 4.472656 L 16.234375 4.039062 C 16.234375 3.355469 15.683594 2.804688 15 2.804688 C 14.316406 2.804688 13.765625 3.355469 13.765625 4.039062 L 13.765625 4.472656 L 11.585938 4.472656 L 11.585938 7.003906 L 18.421875 7.003906 L 18.421875 4.472656 Z M 16.234375 4.472656 "/>
<path style=" stroke:none;fill-rule:nonzero;fill:rgb(19.607843%,29.019608%,36.862745%);fill-opacity:1;" d="M 15.617188 4.046875 C 15.617188 4.386719 15.339844 4.664062 15 4.664062 C 14.660156 4.664062 14.382812 4.386719 14.382812 4.046875 C 14.382812 3.703125 14.660156 3.425781 15 3.425781 C 15.339844 3.425781 15.617188 3.703125 15.617188 4.046875 Z M 15.617188 4.046875 "/>
<path style=" stroke:none;fill-rule:nonzero;fill:rgb(29.803922%,85.882353%,76.862745%);fill-opacity:1;" d="M 17.144531 10.734375 C 17.144531 12.042969 16.085938 13.097656 14.78125 13.097656 C 13.472656 13.097656 12.414062 12.042969 12.414062 10.734375 C 12.414062 9.425781 13.472656 8.371094 14.78125 8.371094 L 14.78125 10.734375 Z M 17.144531 10.734375 "/>
<path style=" stroke:none;fill-rule:nonzero;fill:rgb(51.764706%,85.882353%,100%);fill-opacity:1;" d="M 17.578125 10.300781 L 15.214844 10.300781 L 15.214844 7.9375 C 16.519531 7.941406 17.578125 9 17.578125 10.300781 Z M 17.578125 10.300781 "/>
<path style=" stroke:none;fill-rule:nonzero;fill:rgb(90.196078%,91.372549%,93.333333%);fill-opacity:1;" d="M 19.105469 21.847656 L 21.304688 19.652344 L 19.105469 19.652344 Z M 19.105469 21.847656 "/>
<path style=" stroke:none;fill-rule:nonzero;fill:rgb(90.196078%,91.372549%,93.333333%);fill-opacity:1;" d="M 9.984375 15.914062 L 20.015625 15.914062 L 20.015625 16.515625 L 9.984375 16.515625 Z M 9.984375 15.914062 "/>
<path style=" stroke:none;fill-rule:nonzero;fill:rgb(90.196078%,91.372549%,93.333333%);fill-opacity:1;" d="M 9.984375 14.246094 L 20.015625 14.246094 L 20.015625 14.84375 L 9.984375 14.84375 Z M 9.984375 14.246094 "/>
<path style=" stroke:none;fill-rule:nonzero;fill:rgb(90.196078%,91.372549%,93.333333%);fill-opacity:1;" d="M 9.984375 17.589844 L 20.015625 17.589844 L 20.015625 18.191406 L 9.984375 18.191406 Z M 9.984375 17.589844 "/>
</g>
</svg>
