<?xml version="1.0" encoding="UTF-8"?>
<svg xmlns="http://www.w3.org/2000/svg" xmlns:xlink="http://www.w3.org/1999/xlink" width="30px" height="30px" viewBox="0 0 30 29" version="1.1">
<g id="surface1">
<path style=" stroke:none;fill-rule:nonzero;fill:rgb(100%,100%,100%);fill-opacity:1;" d="M 29.648438 14.472656 C 29.648438 22.351562 23.0625 28.734375 14.933594 28.734375 C 6.808594 28.734375 0.222656 22.351562 0.222656 14.472656 C 0.222656 6.597656 6.808594 0.210938 14.933594 0.210938 C 23.0625 0.210938 29.648438 6.597656 29.648438 14.472656 Z M 29.648438 14.472656 "/>
<path style=" stroke:none;fill-rule:nonzero;fill:rgb(0%,21.960784%,39.607843%);fill-opacity:1;" d="M 24.496094 15.6875 L 23.765625 15.90625 L 23.929688 15.96875 L 23.675781 16.128906 C 23.703125 15.984375 23.726562 15.835938 23.75 15.691406 L 24.148438 15.367188 L 24.160156 15.535156 L 24.609375 14.9375 L 23.914062 15.25 L 24.085938 15.292969 L 23.765625 15.550781 C 23.789062 15.371094 23.804688 15.191406 23.816406 15.011719 L 24.210938 14.585938 L 24.246094 14.753906 L 24.609375 14.105469 L 23.960938 14.5 L 24.140625 14.519531 L 23.824219 14.847656 C 23.828125 14.734375 23.832031 14.621094 23.832031 14.507812 C 23.832031 13.652344 23.703125 12.828125 23.460938 12.046875 C 23.0625 12.085938 22.660156 11.960938 22.46875 11.925781 C 22.980469 12.214844 23.15625 12.53125 23.234375 12.890625 C 22.824219 12.980469 22.277344 12.851562 21.976562 12.625 C 22.269531 12.871094 22.453125 13.261719 22.46875 13.667969 C 22.046875 13.6875 21.65625 13.496094 21.367188 13.214844 C 21.550781 13.414062 21.785156 13.917969 21.730469 14.277344 C 21.375 14.242188 20.960938 14.015625 20.734375 13.75 C 20.921875 14.148438 21.011719 14.476562 20.988281 14.832031 C 20.640625 14.769531 20.375 14.671875 20.058594 14.382812 C 20.210938 14.75 20.265625 15.117188 20.230469 15.417969 C 19.828125 15.28125 19.558594 15.121094 19.328125 14.753906 C 19.449219 15.078125 19.53125 15.507812 19.445312 15.757812 C 19.101562 15.660156 18.875 15.457031 18.699219 15.117188 C 18.875 15.480469 18.851562 15.898438 18.792969 16.113281 C 18.648438 16.085938 18.460938 15.992188 18.363281 15.882812 C 18.355469 15.949219 18.351562 16.011719 18.347656 16.074219 C 18.332031 16.316406 18.28125 16.546875 18.199219 16.757812 C 18.226562 16.785156 18.296875 16.863281 18.296875 16.867188 C 18.476562 17.054688 18.726562 17.234375 18.921875 17.292969 C 18.835938 17.304688 18.71875 17.375 18.605469 17.386719 C 18.734375 17.527344 18.996094 17.558594 19.15625 17.71875 C 19.03125 17.734375 19 17.824219 18.847656 17.808594 C 19.140625 18.027344 19.410156 18.03125 19.558594 18.050781 C 19.617188 18.054688 19.816406 18.074219 19.9375 18.054688 C 20.117188 18.03125 20.296875 18.113281 20.367188 18.152344 C 20.476562 18.214844 20.46875 18.359375 20.449219 18.433594 C 20.433594 18.476562 20.417969 18.527344 20.335938 18.570312 C 20.289062 18.582031 20.257812 18.585938 20.304688 18.550781 C 20.347656 18.523438 20.386719 18.339844 20.289062 18.269531 C 20.21875 18.21875 20.117188 18.175781 19.996094 18.179688 C 19.867188 18.1875 19.664062 18.199219 19.566406 18.191406 C 19.476562 18.179688 19.421875 18.292969 19.410156 18.339844 C 19.375 18.457031 19.339844 18.597656 19.171875 18.527344 C 18.960938 18.410156 18.664062 18.421875 18.324219 18.285156 C 18.371094 18.386719 18.351562 18.476562 18.402344 18.589844 C 18.101562 18.519531 18.023438 18.367188 17.734375 18.269531 C 17.78125 18.371094 17.765625 18.453125 17.832031 18.546875 C 17.589844 18.507812 17.363281 18.292969 17.023438 18.207031 C 17.011719 18.210938 17.003906 18.214844 16.992188 18.214844 C 16.867188 18.25 16.753906 18.285156 16.652344 18.316406 C 16.894531 18.582031 17.089844 18.902344 17.183594 19.296875 C 17.183594 19.296875 17.015625 19.300781 16.765625 19.214844 C 16.835938 19.429688 16.878906 19.660156 16.882812 19.902344 C 16.882812 19.902344 16.695312 19.871094 16.433594 19.714844 C 16.457031 19.945312 16.449219 20.1875 16.398438 20.433594 C 16.398438 20.433594 16.179688 20.347656 15.917969 20.089844 C 15.890625 20.332031 15.828125 20.574219 15.722656 20.816406 C 15.722656 20.816406 15.519531 20.683594 15.316406 20.375 C 15.230469 20.613281 15.109375 20.851562 14.949219 21.074219 C 14.949219 21.074219 14.730469 20.851562 14.582031 20.402344 C 14.382812 20.691406 14.195312 20.816406 14.195312 20.816406 C 14.089844 20.574219 14.027344 20.332031 13.996094 20.089844 C 13.738281 20.347656 13.515625 20.433594 13.515625 20.433594 C 13.464844 20.1875 13.457031 19.945312 13.480469 19.714844 C 13.222656 19.871094 13.027344 19.902344 13.027344 19.902344 C 13.035156 19.660156 13.078125 19.429688 13.152344 19.214844 C 12.898438 19.300781 12.730469 19.296875 12.730469 19.296875 C 12.824219 18.894531 13.09375 18.484375 13.277344 18.300781 C 13.1875 18.273438 13.09375 18.246094 12.988281 18.214844 C 12.980469 18.214844 12.96875 18.210938 12.957031 18.207031 C 12.621094 18.292969 12.394531 18.507812 12.148438 18.546875 C 12.210938 18.453125 12.199219 18.371094 12.246094 18.269531 C 11.957031 18.367188 11.878906 18.519531 11.578125 18.589844 C 11.628906 18.476562 11.609375 18.386719 11.660156 18.285156 C 11.375 18.421875 10.992188 18.511719 10.820312 18.550781 C 10.632812 18.585938 10.621094 18.3125 10.558594 18.253906 C 10.53125 18.226562 10.378906 18.21875 10.316406 18.226562 C 10.222656 18.242188 10.039062 18.234375 9.90625 18.230469 C 9.769531 18.230469 9.671875 18.269531 9.601562 18.320312 C 9.503906 18.390625 9.550781 18.582031 9.59375 18.613281 C 9.640625 18.644531 9.613281 18.640625 9.566406 18.628906 C 9.484375 18.589844 9.464844 18.535156 9.449219 18.492188 C 9.429688 18.421875 9.421875 18.277344 9.53125 18.214844 C 9.601562 18.175781 9.785156 18.089844 9.960938 18.117188 C 10.085938 18.132812 10.28125 18.117188 10.339844 18.109375 C 10.398438 18.101562 10.839844 18.027344 11.132812 17.808594 C 10.980469 17.824219 10.949219 17.734375 10.824219 17.71875 C 10.984375 17.558594 11.246094 17.527344 11.375 17.386719 C 11.261719 17.375 11.160156 17.285156 11.074219 17.273438 C 11.332031 17.132812 11.503906 17.054688 11.683594 16.867188 C 11.683594 16.863281 11.753906 16.789062 11.78125 16.757812 C 11.699219 16.550781 11.648438 16.320312 11.628906 16.074219 C 11.625 16.015625 11.621094 15.953125 11.617188 15.890625 C 11.554688 15.957031 11.425781 16.027344 11.214844 16.101562 C 11.117188 15.867188 11.164062 15.4375 11.289062 15.101562 C 11.109375 15.445312 10.910156 15.664062 10.566406 15.765625 C 10.480469 15.515625 10.53125 15.078125 10.652344 14.753906 C 10.421875 15.121094 10.179688 15.308594 9.773438 15.449219 C 9.738281 15.148438 9.773438 14.75 9.921875 14.382812 C 9.609375 14.671875 9.34375 14.769531 8.992188 14.835938 C 8.96875 14.476562 9.058594 14.148438 9.246094 13.75 C 9.019531 14.015625 8.554688 14.199219 8.199219 14.238281 C 8.226562 13.925781 8.453125 13.5 8.582031 13.25 C 8.25 13.480469 7.894531 13.648438 7.511719 13.667969 C 7.5625 13.3125 7.722656 12.933594 8.003906 12.625 C 7.675781 12.859375 7.171875 12.988281 6.792969 12.9375 C 6.882812 12.550781 7.128906 12.171875 7.460938 11.972656 C 7.269531 12.007812 6.921875 12.085938 6.519531 12.050781 C 6.28125 12.816406 6.152344 13.628906 6.148438 14.46875 C 5.949219 14.316406 5.808594 14.277344 5.671875 14.144531 C 5.699219 14.328125 5.722656 14.425781 5.742188 14.652344 C 5.78125 15.058594 5.9375 15.289062 6.199219 15.433594 C 6.214844 15.550781 6.226562 15.664062 6.246094 15.777344 C 6.050781 15.660156 5.789062 15.582031 5.449219 15.585938 C 5.65625 16.246094 5.957031 16.296875 6.355469 16.359375 C 6.371094 16.417969 6.382812 16.480469 6.398438 16.539062 C 6.1875 16.484375 5.929688 16.484375 5.636719 16.5625 C 5.839844 16.867188 6.117188 17.046875 6.566406 17.113281 C 6.566406 17.117188 6.566406 17.117188 6.570312 17.121094 C 6.292969 17.101562 5.996094 17.140625 5.757812 17.257812 C 6.097656 17.539062 6.429688 17.644531 6.746094 17.613281 C 6.761719 17.65625 6.78125 17.695312 6.796875 17.734375 C 6.546875 17.800781 6.324219 17.925781 6.203125 18.042969 C 6.464844 18.125 6.738281 18.167969 6.980469 18.140625 C 6.984375 18.148438 6.988281 18.152344 6.988281 18.160156 C 6.84375 18.265625 6.722656 18.4375 6.644531 18.707031 C 6.832031 18.660156 7.023438 18.648438 7.21875 18.59375 C 7.253906 18.664062 7.292969 18.734375 7.335938 18.800781 C 7.234375 18.988281 7.199219 19.222656 7.257812 19.484375 C 7.421875 19.445312 7.554688 19.386719 7.664062 19.308594 C 7.703125 19.363281 7.738281 19.414062 7.78125 19.46875 C 7.738281 19.769531 7.808594 20.070312 7.992188 20.269531 C 8.078125 20.175781 8.148438 20.085938 8.203125 20 C 9.824219 21.882812 12.261719 23.082031 14.988281 23.082031 C 18.796875 23.082031 22.039062 20.75 23.285156 17.484375 L 23.6875 17.3125 L 23.65625 17.484375 L 24.234375 17 L 23.484375 17.148438 L 23.644531 17.226562 L 23.335938 17.351562 C 23.386719 17.203125 23.4375 17.046875 23.484375 16.894531 L 23.925781 16.65625 L 23.910156 16.832031 L 24.441406 16.292969 L 23.710938 16.511719 L 23.875 16.578125 L 23.523438 16.765625 C 23.570312 16.597656 23.613281 16.425781 23.648438 16.257812 L 23.984375 16.050781 L 23.96875 16.222656 L 24.496094 15.6875 "/>
<path style=" stroke:none;fill-rule:nonzero;fill:rgb(65.098039%,9.803922%,18.039216%);fill-opacity:1;" d="M 24.074219 9.292969 C 23.90625 9.347656 23.738281 9.390625 23.578125 9.425781 C 24.507812 10.90625 25.042969 12.640625 25.042969 14.5 C 25.042969 19.878906 20.542969 24.242188 14.992188 24.242188 C 9.441406 24.242188 4.941406 19.878906 4.941406 14.5 C 4.941406 12.558594 5.523438 10.753906 6.53125 9.234375 C 6.371094 9.1875 6.214844 9.128906 6.058594 9.058594 C 5.035156 10.632812 4.441406 12.5 4.441406 14.5 C 4.441406 20.144531 9.167969 24.726562 14.992188 24.726562 C 20.816406 24.726562 25.542969 20.144531 25.542969 14.5 C 25.542969 12.597656 25.007812 10.816406 24.074219 9.292969 "/>
<path style=" stroke:none;fill-rule:nonzero;fill:rgb(65.098039%,9.803922%,18.039216%);fill-opacity:1;" d="M 9.148438 6.570312 C 10.796875 5.425781 12.8125 4.753906 14.992188 4.753906 C 17.425781 4.753906 19.660156 5.59375 21.398438 6.988281 C 21.59375 6.9375 21.785156 6.886719 21.980469 6.839844 C 20.121094 5.242188 17.671875 4.273438 14.992188 4.273438 C 12.589844 4.273438 10.371094 5.050781 8.597656 6.363281 C 8.683594 6.394531 8.765625 6.421875 8.851562 6.457031 C 8.953125 6.492188 9.054688 6.53125 9.148438 6.570312 "/>
<path style=" stroke:none;fill-rule:nonzero;fill:rgb(60%,60%,60%);fill-opacity:1;" d="M 14.988281 28.09375 C 7.246094 28.09375 0.964844 22.007812 0.964844 14.5 C 0.964844 6.992188 7.246094 0.902344 14.988281 0.902344 C 22.734375 0.902344 29.015625 6.992188 29.015625 14.5 C 29.015625 22.007812 22.734375 28.09375 14.988281 28.09375 M 14.988281 0.00390625 C 6.734375 0.00390625 0.0390625 6.496094 0.0390625 14.5 C 0.0390625 22.503906 6.734375 28.992188 14.988281 28.992188 C 23.246094 28.992188 29.941406 22.503906 29.941406 14.5 C 29.941406 6.496094 23.246094 0.00390625 14.988281 0.00390625 Z M 14.988281 0.00390625 "/>
<path style=" stroke:none;fill-rule:nonzero;fill:rgb(0%,21.960784%,39.607843%);fill-opacity:1;" d="M 11.382812 11.59375 C 11.171875 11.488281 10.984375 11.363281 10.785156 11.1875 C 10.144531 10.621094 9.992188 10.027344 10.179688 9.34375 C 10.292969 8.933594 10.464844 8.730469 10.40625 8.304688 C 10.371094 8.058594 10.195312 7.863281 10.015625 7.699219 C 9.589844 7.300781 9.078125 7.054688 8.328125 6.808594 C 7.863281 6.65625 6.515625 6.25 5.917969 5.726562 C 5.785156 6.113281 6.070312 6.621094 6.414062 6.691406 C 6.109375 6.71875 5.851562 6.875 5.730469 7.039062 C 5.960938 7.296875 6.417969 7.566406 6.796875 7.574219 C 6.621094 7.6875 6.40625 7.925781 6.335938 8.0625 C 6.664062 8.230469 7.1875 8.371094 7.585938 8.34375 C 7.417969 8.472656 7.273438 8.640625 7.175781 8.792969 C 7.445312 8.914062 7.976562 9.085938 8.476562 9.121094 C 8.292969 9.210938 8.027344 9.515625 7.890625 9.707031 C 8.175781 9.828125 8.785156 9.902344 9.164062 9.9375 C 8.894531 10.078125 8.609375 10.351562 8.453125 10.601562 C 8.726562 10.730469 9.246094 10.871094 9.667969 10.859375 C 9.457031 11.054688 9.320312 11.289062 9.242188 11.515625 C 9.5625 11.578125 9.898438 11.582031 10.289062 11.53125 C 10.050781 11.820312 9.957031 12.203125 9.925781 12.476562 C 10.242188 12.46875 10.660156 12.398438 10.957031 12.226562 C 10.894531 12.460938 10.90625 12.78125 11.011719 13.003906 C 11.136719 12.976562 11.28125 12.925781 11.4375 12.84375 C 11.417969 12.40625 11.394531 11.960938 11.382812 11.59375 "/>
<path style=" stroke:none;fill-rule:nonzero;fill:rgb(0%,21.960784%,39.607843%);fill-opacity:1;" d="M 24.265625 6.433594 C 23.671875 6.953125 22.71875 7.09375 21.71875 7.414062 C 20.964844 7.65625 20.496094 7.796875 19.824219 8.316406 C 19.632812 8.464844 19.449219 8.683594 19.46875 9.058594 C 19.492188 9.476562 19.558594 9.65625 19.574219 10.238281 C 19.582031 10.65625 19.433594 10.992188 19.25 11.1875 C 19.0625 11.398438 18.816406 11.578125 18.59375 11.691406 C 18.578125 12.046875 18.5625 12.402344 18.542969 12.816406 C 18.699219 12.898438 18.898438 12.976562 19.023438 13.003906 C 19.128906 12.78125 19.144531 12.460938 19.078125 12.226562 C 19.375 12.398438 19.796875 12.46875 20.113281 12.476562 C 20.078125 12.203125 19.984375 11.820312 19.746094 11.53125 C 20.136719 11.582031 20.472656 11.578125 20.792969 11.515625 C 20.714844 11.289062 20.574219 11.054688 20.367188 10.859375 C 20.789062 10.871094 21.308594 10.730469 21.582031 10.601562 C 21.425781 10.351562 21.144531 10.078125 20.871094 9.9375 C 21.25 9.902344 21.878906 9.828125 22.160156 9.707031 C 22.023438 9.519531 21.742188 9.210938 21.558594 9.121094 C 22.0625 9.085938 22.585938 8.914062 22.859375 8.792969 C 22.765625 8.640625 22.617188 8.472656 22.449219 8.34375 C 22.921875 8.3125 23.371094 8.230469 23.699219 8.0625 C 23.625 7.925781 23.414062 7.6875 23.238281 7.574219 C 24.25 7.300781 24.265625 6.8125 24.265625 6.433594 "/>
<path style=" stroke:none;fill-rule:nonzero;fill:rgb(0%,21.960784%,39.607843%);fill-opacity:1;" d="M 20.027344 7.464844 C 18.597656 6.503906 16.863281 5.9375 14.988281 5.9375 C 13.285156 5.9375 11.6875 6.40625 10.339844 7.21875 C 10.6875 7.484375 10.894531 7.761719 10.949219 8.050781 C 10.992188 8.304688 11.023438 8.613281 10.871094 9.058594 C 10.710938 9.535156 10.621094 10.019531 10.984375 10.515625 C 11.34375 11.007812 11.808594 11.21875 12.195312 11.292969 C 12.703125 11.207031 13.265625 11.136719 13.824219 11.09375 C 13.894531 10.863281 14.109375 10.664062 14.328125 10.5 C 14.640625 10.261719 14.574219 10.058594 14.5 9.894531 C 14.441406 9.769531 14.328125 9.667969 14.167969 9.585938 C 14.023438 9.515625 13.507812 9.460938 13.523438 9.785156 C 13.4375 9.667969 13.367188 9.511719 13.417969 9.308594 C 13.488281 9.03125 13.960938 8.957031 14.078125 8.96875 C 13.988281 8.890625 14.042969 8.773438 14.25 8.714844 C 14.5 8.648438 14.738281 8.640625 14.96875 8.644531 C 15.441406 8.65625 15.515625 8.769531 15.757812 8.976562 C 16.046875 9.222656 16.429688 9.3125 16.582031 9.160156 C 16.472656 9.398438 16.128906 9.527344 15.90625 9.488281 C 16.015625 9.820312 16.054688 10.109375 16.09375 10.453125 C 16.109375 10.613281 16.144531 10.878906 16.1875 11.09375 C 16.820312 11.144531 17.460938 11.230469 18.015625 11.332031 C 18.246094 11.269531 18.484375 11.136719 18.695312 10.898438 C 18.898438 10.671875 19.085938 10.382812 19.007812 9.65625 C 18.988281 9.449219 18.882812 8.929688 18.898438 8.683594 C 18.929688 8.125 19.355469 7.761719 20.027344 7.464844 "/>
<path style=" stroke:none;fill-rule:nonzero;fill:rgb(0%,21.960784%,39.607843%);fill-opacity:1;" d="M 14.15625 8.992188 C 14.242188 9.058594 14.296875 9.066406 14.324219 9.058594 C 14.328125 9.074219 14.355469 9.09375 14.363281 9.101562 C 14.382812 9.117188 14.390625 9.132812 14.398438 9.148438 C 14.4375 9.132812 14.542969 9.09375 14.636719 9.058594 C 14.734375 9.023438 14.871094 8.988281 14.871094 8.988281 C 14.453125 8.902344 14.390625 9.023438 14.15625 8.992188 "/>
<path style=" stroke:none;fill-rule:nonzero;fill:rgb(0%,21.960784%,39.607843%);fill-opacity:1;" d="M 26.691406 10.664062 C 27.214844 10.445312 27.449219 9.878906 27.230469 9.390625 C 27.007812 8.90625 26.421875 8.695312 25.902344 8.917969 C 25.378906 9.136719 25.140625 9.699219 25.359375 10.1875 C 25.582031 10.671875 26.171875 10.886719 26.691406 10.664062 M 26.070312 9.289062 C 26.484375 9.113281 26.953125 9.195312 27.074219 9.457031 C 27.195312 9.726562 26.9375 10.117188 26.523438 10.292969 C 26.109375 10.46875 25.636719 10.386719 25.515625 10.121094 C 25.398438 9.855469 25.65625 9.464844 26.070312 9.289062 Z M 26.070312 9.289062 "/>
<path style=" stroke:none;fill-rule:nonzero;fill:rgb(0%,21.960784%,39.607843%);fill-opacity:1;" d="M 25.964844 11.980469 L 25.765625 11.21875 L 25.886719 11.1875 L 25.941406 11.402344 L 27.605469 10.992188 L 27.550781 10.78125 L 27.671875 10.75 L 27.972656 11.90625 L 28.054688 11.882812 L 28.09375 12.035156 L 27.632812 12.148438 L 27.59375 12 L 27.804688 11.949219 L 27.652344 11.367188 L 26.96875 11.535156 L 27.085938 11.984375 L 27.285156 11.933594 L 27.324219 12.085938 L 26.757812 12.222656 L 26.714844 12.074219 L 26.917969 12.023438 L 26.800781 11.578125 L 26.039062 11.765625 L 26.085938 11.949219 L 25.964844 11.980469 "/>
<path style=" stroke:none;fill-rule:nonzero;fill:rgb(0%,21.960784%,39.607843%);fill-opacity:1;" d="M 2.707031 9.9375 L 2.632812 10.167969 L 3.707031 10.480469 C 4.03125 10.574219 4.199219 10.742188 4.242188 11.007812 C 4.261719 11.144531 4.25 11.292969 4.207031 11.433594 C 4.070312 11.882812 3.726562 12.097656 3.332031 11.988281 L 2.179688 11.652344 L 2.113281 11.863281 L 1.992188 11.828125 L 2.234375 11.054688 L 2.351562 11.089844 L 2.289062 11.296875 L 3.351562 11.605469 C 3.640625 11.6875 3.789062 11.675781 3.910156 11.558594 C 3.964844 11.5 4.007812 11.425781 4.035156 11.339844 C 4.136719 11.011719 3.992188 10.757812 3.644531 10.65625 L 2.582031 10.347656 L 2.511719 10.578125 L 2.386719 10.546875 L 2.585938 9.902344 L 2.707031 9.9375 "/>
<path style=" stroke:none;fill-rule:nonzero;fill:rgb(0%,21.960784%,39.607843%);fill-opacity:1;" d="M 4.59375 10.386719 C 4.550781 10.484375 4.433594 10.53125 4.332031 10.492188 C 4.230469 10.449219 4.183594 10.335938 4.226562 10.238281 C 4.269531 10.140625 4.386719 10.089844 4.488281 10.132812 C 4.589844 10.175781 4.636719 10.289062 4.59375 10.386719 "/>
<path style=" stroke:none;fill-rule:nonzero;fill:rgb(0%,21.960784%,39.607843%);fill-opacity:1;" d="M 4.964844 9.5625 L 4.886719 9.699219 L 4.417969 9.445312 L 4.5 9.308594 L 4.691406 9.414062 C 4.847656 9.351562 4.933594 9.285156 5.003906 9.160156 C 5.09375 9.003906 5.0625 8.839844 4.929688 8.765625 C 4.8125 8.699219 4.6875 8.730469 4.394531 8.878906 C 4.089844 9.035156 4.046875 9.054688 3.933594 9.078125 C 3.820312 9.097656 3.699219 9.074219 3.582031 9.011719 C 3.296875 8.855469 3.226562 8.546875 3.402344 8.242188 C 3.460938 8.144531 3.523438 8.074219 3.617188 8 L 3.542969 7.957031 L 3.621094 7.824219 L 4.0625 8.0625 L 3.984375 8.199219 L 3.804688 8.101562 C 3.675781 8.171875 3.609375 8.222656 3.554688 8.316406 C 3.480469 8.449219 3.515625 8.601562 3.636719 8.667969 C 3.742188 8.722656 3.839844 8.703125 4.140625 8.546875 C 4.285156 8.472656 4.375 8.425781 4.410156 8.410156 C 4.488281 8.375 4.574219 8.351562 4.667969 8.347656 C 4.777344 8.34375 4.875 8.367188 4.976562 8.421875 C 5.273438 8.582031 5.359375 8.90625 5.1875 9.199219 C 5.105469 9.347656 5.011719 9.4375 4.875 9.511719 L 4.964844 9.5625 "/>
<path style=" stroke:none;fill-rule:nonzero;fill:rgb(0%,21.960784%,39.607843%);fill-opacity:1;" d="M 5.746094 8.253906 C 5.746094 8.359375 5.660156 8.445312 5.550781 8.445312 C 5.441406 8.445312 5.355469 8.359375 5.355469 8.253906 C 5.355469 8.148438 5.441406 8.066406 5.550781 8.066406 C 5.660156 8.066406 5.746094 8.148438 5.746094 8.253906 "/>
<path style=" stroke:none;fill-rule:nonzero;fill:rgb(0%,21.960784%,39.607843%);fill-opacity:1;" d="M 10.355469 4.539062 L 9.09375 5.171875 L 9.039062 5.0625 L 9.238281 4.960938 L 8.453125 3.484375 L 8.25 3.582031 L 8.195312 3.476562 L 9.285156 2.929688 L 9.246094 2.859375 L 9.390625 2.789062 L 9.605469 3.195312 L 9.46875 3.265625 L 9.367188 3.082031 L 8.816406 3.355469 L 9.140625 3.960938 L 9.5625 3.75 L 9.46875 3.574219 L 9.613281 3.5 L 9.882812 4.007812 L 9.738281 4.082031 L 9.644531 3.902344 L 9.21875 4.113281 L 9.558594 4.746094 L 10.132812 4.460938 L 10.03125 4.269531 L 10.171875 4.199219 L 10.355469 4.539062 "/>
<path style=" stroke:none;fill-rule:nonzero;fill:rgb(0%,21.960784%,39.607843%);fill-opacity:1;" d="M 11.570312 4.113281 L 10.75 4.378906 L 10.710938 4.261719 L 10.925781 4.195312 L 10.382812 2.617188 L 10.167969 2.683594 L 10.128906 2.570312 L 10.988281 2.292969 C 11.335938 2.179688 11.636719 2.3125 11.746094 2.628906 C 11.847656 2.925781 11.660156 3.261719 11.328125 3.367188 C 11.28125 3.382812 11.25 3.390625 11.171875 3.402344 L 11.125 3.265625 C 11.164062 3.261719 11.179688 3.257812 11.203125 3.25 C 11.394531 3.1875 11.457031 3.019531 11.375 2.777344 C 11.285156 2.519531 11.136719 2.417969 10.929688 2.484375 L 10.761719 2.539062 L 11.289062 4.078125 L 11.527344 4 L 11.570312 4.113281 "/>
<path style=" stroke:none;fill-rule:nonzero;fill:rgb(0%,21.960784%,39.607843%);fill-opacity:1;" d="M 13.988281 3.472656 L 13.867188 3.492188 L 12.8125 1.800781 L 12.632812 1.828125 L 12.203125 3.773438 L 12.019531 3.804688 L 12.042969 3.925781 L 12.648438 3.824219 L 12.628906 3.703125 L 12.394531 3.742188 L 12.5 3.25 L 13.214844 3.128906 L 13.480469 3.558594 L 13.273438 3.59375 L 13.292969 3.714844 L 14.011719 3.59375 L 13.988281 3.472656 M 12.539062 3.0625 L 12.710938 2.300781 L 13.117188 2.96875 Z M 12.539062 3.0625 "/>
<path style=" stroke:none;fill-rule:nonzero;fill:rgb(0%,21.960784%,39.607843%);fill-opacity:1;" d="M 16.046875 3.476562 L 15.925781 3.476562 C 15.863281 3.476562 15.828125 3.449219 15.757812 3.347656 L 15.339844 2.714844 C 15.621094 2.632812 15.757812 2.46875 15.757812 2.207031 C 15.757812 2.054688 15.710938 1.929688 15.613281 1.832031 C 15.507812 1.730469 15.363281 1.691406 15.109375 1.691406 L 14.226562 1.6875 L 14.226562 1.808594 L 14.453125 1.8125 L 14.449219 3.472656 L 14.222656 3.472656 L 14.222656 3.59375 L 15.058594 3.597656 L 15.058594 3.476562 L 14.832031 3.476562 L 14.835938 2.746094 L 14.917969 2.75 L 15.363281 3.425781 C 15.464844 3.578125 15.492188 3.597656 15.667969 3.597656 L 16.046875 3.597656 L 16.046875 3.476562 M 14.839844 1.851562 L 15.023438 1.851562 C 15.238281 1.851562 15.359375 1.984375 15.359375 2.21875 C 15.359375 2.445312 15.21875 2.605469 15.011719 2.605469 L 14.835938 2.601562 Z M 14.839844 1.851562 "/>
<path style=" stroke:none;fill-rule:nonzero;fill:rgb(0%,21.960784%,39.607843%);fill-opacity:1;" d="M 17.394531 3.828125 L 16.449219 3.671875 L 16.46875 3.554688 L 16.753906 3.597656 L 17.03125 2.007812 L 16.523438 1.925781 L 16.484375 2.160156 L 16.320312 2.136719 L 16.40625 1.652344 L 16.566406 1.675781 L 16.554688 1.757812 L 17.945312 1.984375 L 17.960938 1.90625 L 18.121094 1.929688 L 18.035156 2.414062 L 17.875 2.390625 L 17.917969 2.152344 L 17.410156 2.070312 L 17.132812 3.660156 L 17.414062 3.707031 L 17.394531 3.828125 "/>
<path style=" stroke:none;fill-rule:nonzero;fill:rgb(0%,21.960784%,39.607843%);fill-opacity:1;" d="M 20.179688 4.738281 L 19.351562 4.429688 L 19.398438 4.316406 L 19.632812 4.40625 L 20.097656 3.242188 L 18.964844 4.3125 L 18.808594 2.785156 L 18.351562 3.921875 L 18.585938 4.011719 L 18.539062 4.125 L 17.898438 3.882812 L 17.945312 3.769531 L 18.175781 3.855469 L 18.796875 2.304688 L 18.566406 2.21875 L 18.609375 2.105469 L 19.101562 2.289062 L 19.257812 3.789062 L 20.339844 2.753906 L 20.886719 2.960938 L 20.84375 3.074219 L 20.609375 2.988281 L 19.992188 4.539062 L 20.226562 4.625 L 20.179688 4.738281 "/>
<path style=" stroke:none;fill-rule:nonzero;fill:rgb(0%,21.960784%,39.607843%);fill-opacity:1;" d="M 21.628906 5.660156 L 20.433594 4.917969 L 20.503906 4.816406 L 20.691406 4.933594 L 21.617188 3.53125 L 21.425781 3.417969 L 21.492188 3.3125 L 22.527344 3.953125 L 22.570312 3.886719 L 22.707031 3.96875 L 22.453125 4.355469 L 22.320312 4.273438 L 22.433594 4.097656 L 21.914062 3.773438 L 21.535156 4.351562 L 21.9375 4.597656 L 22.046875 4.433594 L 22.183594 4.515625 L 21.867188 4.996094 L 21.730469 4.914062 L 21.839844 4.742188 L 21.441406 4.492188 L 21.042969 5.09375 L 21.585938 5.433594 L 21.707031 5.253906 L 21.84375 5.335938 L 21.628906 5.660156 "/>
<path style=" stroke:none;fill-rule:nonzero;fill:rgb(0%,21.960784%,39.607843%);fill-opacity:1;" d="M 8.03125 5.738281 L 7.835938 5.875 L 6.871094 4.601562 L 7.074219 4.453125 C 7.355469 4.253906 7.816406 4.375 8.074219 4.71875 C 8.351562 5.085938 8.335938 5.523438 8.03125 5.738281 M 8.414062 4.476562 C 8.089844 4.046875 7.480469 3.964844 7.027344 4.285156 L 6.277344 4.820312 L 6.351562 4.917969 L 6.535156 4.789062 L 7.550781 6.125 C 7.597656 6.144531 7.644531 6.160156 7.691406 6.179688 L 8.1875 5.824219 C 8.421875 5.65625 8.546875 5.472656 8.59375 5.226562 C 8.640625 4.957031 8.578125 4.691406 8.414062 4.476562 Z M 8.414062 4.476562 "/>
<path style=" stroke:none;fill-rule:nonzero;fill:rgb(0%,21.960784%,39.607843%);fill-opacity:1;" d="M 24.167969 5.261719 L 24.082031 5.355469 L 24.257812 5.507812 L 23.414062 6.402344 L 23.628906 4.789062 L 23.191406 4.398438 L 23.105469 4.488281 L 23.265625 4.628906 L 23.230469 4.800781 L 22.175781 5.921875 L 21.996094 5.757812 L 21.910156 5.847656 L 22.40625 6.289062 L 22.492188 6.199219 L 22.320312 6.046875 L 23.195312 5.113281 L 23.007812 6.59375 C 23.191406 6.546875 23.386719 6.5 23.59375 6.441406 C 23.613281 6.4375 23.628906 6.429688 23.644531 6.425781 L 24.394531 5.628906 L 24.582031 5.792969 L 24.664062 5.703125 L 24.167969 5.261719 "/>
<path style=" stroke:none;fill-rule:nonzero;fill:rgb(0%,21.960784%,39.607843%);fill-opacity:1;" d="M 26.171875 7.363281 L 26.105469 7.414062 L 25.25 6.324219 L 25.316406 6.273438 L 25.214844 6.148438 L 24.8125 6.449219 L 24.914062 6.574219 L 25.109375 6.429688 L 25.421875 6.824219 L 24.097656 7.804688 L 24.03125 7.71875 C 23.992188 7.738281 23.953125 7.757812 23.914062 7.773438 L 24.40625 8.394531 L 24.503906 8.320312 L 24.332031 8.101562 L 25.65625 7.121094 L 25.964844 7.515625 L 25.769531 7.660156 L 25.867188 7.789062 L 26.269531 7.488281 L 26.171875 7.363281 "/>
<path style=" stroke:none;fill-rule:nonzero;fill:rgb(0%,21.960784%,39.607843%);fill-opacity:1;" d="M 17.460938 27.191406 L 17.300781 27.226562 L 17.1875 26.71875 L 17.347656 26.6875 L 17.394531 26.894531 C 17.546875 26.96875 17.65625 26.984375 17.800781 26.953125 C 17.980469 26.914062 18.085938 26.78125 18.050781 26.636719 C 18.023438 26.511719 17.917969 26.4375 17.609375 26.324219 C 17.285156 26.210938 17.242188 26.191406 17.148438 26.121094 C 17.058594 26.054688 16.996094 25.949219 16.964844 25.828125 C 16.894531 25.515625 17.085938 25.257812 17.441406 25.183594 C 17.554688 25.160156 17.648438 25.160156 17.769531 25.179688 L 17.75 25.09375 L 17.90625 25.0625 L 18.015625 25.542969 L 17.859375 25.578125 L 17.816406 25.382812 C 17.675781 25.332031 17.589844 25.320312 17.484375 25.34375 C 17.332031 25.375 17.238281 25.507812 17.269531 25.636719 C 17.292969 25.75 17.378906 25.804688 17.695312 25.921875 C 17.847656 25.976562 17.945312 26.007812 17.980469 26.023438 C 18.058594 26.054688 18.132812 26.105469 18.199219 26.167969 C 18.277344 26.246094 18.324219 26.332031 18.347656 26.445312 C 18.421875 26.765625 18.230469 27.042969 17.886719 27.113281 C 17.71875 27.148438 17.589844 27.140625 17.441406 27.09375 L 17.460938 27.191406 "/>
<path style=" stroke:none;fill-rule:nonzero;fill:rgb(0%,21.960784%,39.607843%);fill-opacity:1;" d="M 20.492188 26.269531 L 19.171875 26.773438 L 19.125 26.660156 L 19.335938 26.578125 L 18.707031 25.03125 L 18.496094 25.113281 L 18.453125 25 L 19.59375 24.5625 L 19.5625 24.488281 L 19.714844 24.429688 L 19.886719 24.859375 L 19.738281 24.914062 L 19.664062 24.71875 L 19.082031 24.941406 L 19.339844 25.574219 L 19.785156 25.40625 L 19.710938 25.222656 L 19.863281 25.164062 L 20.074219 25.691406 L 19.925781 25.753906 L 19.847656 25.566406 L 19.40625 25.734375 L 19.675781 26.398438 L 20.277344 26.167969 L 20.195312 25.96875 L 20.347656 25.914062 L 20.492188 26.269531 "/>
<path style=" stroke:none;fill-rule:nonzero;fill:rgb(0%,21.960784%,39.607843%);fill-opacity:1;" d="M 22.476562 25.097656 C 22.308594 25.300781 22.191406 25.410156 21.996094 25.523438 C 21.460938 25.835938 20.855469 25.710938 20.550781 25.222656 C 20.246094 24.734375 20.402344 24.148438 20.914062 23.84375 C 21.078125 23.746094 21.207031 23.703125 21.394531 23.675781 L 21.328125 23.574219 L 21.46875 23.492188 L 21.746094 23.933594 L 21.605469 24.015625 L 21.503906 23.859375 C 21.296875 23.84375 21.199219 23.867188 21.066406 23.945312 C 20.710938 24.152344 20.644531 24.585938 20.898438 24.996094 C 21.152344 25.394531 21.617188 25.546875 21.96875 25.339844 C 22.09375 25.265625 22.171875 25.183594 22.246094 25.042969 L 22.128906 24.855469 L 22.269531 24.769531 L 22.476562 25.097656 "/>
<path style=" stroke:none;fill-rule:nonzero;fill:rgb(0%,21.960784%,39.607843%);fill-opacity:1;" d="M 23.375 22.117188 L 23.1875 22.28125 L 23.941406 23.082031 C 24.167969 23.324219 24.226562 23.550781 24.121094 23.800781 C 24.0625 23.929688 23.976562 24.050781 23.863281 24.148438 C 23.507812 24.464844 23.097656 24.480469 22.820312 24.1875 L 22.007812 23.324219 L 21.839844 23.472656 L 21.757812 23.382812 L 22.371094 22.835938 L 22.457031 22.925781 L 22.292969 23.070312 L 23.042969 23.867188 C 23.242188 24.082031 23.375 24.148438 23.542969 24.105469 C 23.621094 24.082031 23.699219 24.042969 23.761719 23.984375 C 24.027344 23.75 24.039062 23.460938 23.792969 23.203125 L 23.046875 22.410156 L 22.863281 22.570312 L 22.777344 22.480469 L 23.289062 22.027344 L 23.375 22.117188 "/>
<path style=" stroke:none;fill-rule:nonzero;fill:rgb(0%,21.960784%,39.607843%);fill-opacity:1;" d="M 26.71875 20.433594 L 26.320312 21.144531 L 26.210938 21.085938 L 26.320312 20.890625 L 24.808594 20.101562 L 24.703125 20.292969 L 24.59375 20.234375 L 24.988281 19.523438 L 25.101562 19.582031 L 24.992188 19.773438 L 26.503906 20.566406 L 26.609375 20.375 L 26.71875 20.433594 "/>
<path style=" stroke:none;fill-rule:nonzero;fill:rgb(0%,21.960784%,39.607843%);fill-opacity:1;" d="M 27.480469 18.703125 L 27.140625 19.574219 L 27.027344 19.53125 L 27.125 19.269531 L 25.570312 18.699219 L 25.386719 19.167969 L 25.617188 19.25 L 25.558594 19.402344 L 25.085938 19.226562 L 25.144531 19.078125 L 25.222656 19.109375 L 25.71875 17.828125 L 25.640625 17.796875 L 25.699219 17.648438 L 26.171875 17.824219 L 26.117188 17.972656 L 25.882812 17.886719 L 25.703125 18.351562 L 27.261719 18.921875 L 27.363281 18.660156 L 27.480469 18.703125 "/>
<path style=" stroke:none;fill-rule:nonzero;fill:rgb(0%,21.960784%,39.607843%);fill-opacity:1;" d="M 28.007812 16.578125 L 27.847656 17.371094 L 27.722656 17.347656 L 27.769531 17.136719 L 26.960938 16.984375 L 25.96875 17.378906 L 25.933594 17.558594 L 25.8125 17.535156 L 25.972656 16.738281 L 26.09375 16.765625 L 26.050781 16.972656 L 26.773438 16.695312 L 26.210938 16.195312 L 26.160156 16.433594 L 26.039062 16.410156 L 26.171875 15.75 L 26.292969 15.773438 L 26.253906 15.980469 L 26.957031 16.601562 L 27.839844 16.769531 L 27.886719 16.554688 L 28.007812 16.578125 "/>
<path style=" stroke:none;fill-rule:nonzero;fill:rgb(0%,21.960784%,39.607843%);fill-opacity:1;" d="M 23.9375 21.453125 L 24.046875 21.304688 C 24.175781 21.140625 24.359375 21.125 24.546875 21.261719 C 24.738281 21.398438 24.785156 21.601562 24.664062 21.761719 L 24.558594 21.898438 L 23.9375 21.453125 M 26.003906 21.472656 L 25.929688 21.570312 C 25.894531 21.613281 25.851562 21.628906 25.726562 21.621094 L 24.953125 21.574219 C 25.050781 21.308594 24.992188 21.097656 24.777344 20.945312 C 24.648438 20.855469 24.519531 20.816406 24.382812 20.835938 C 24.230469 20.859375 24.117188 20.945312 23.960938 21.148438 L 23.4375 21.832031 L 23.539062 21.902344 L 23.675781 21.726562 L 25.050781 22.71875 L 24.917969 22.894531 L 25.015625 22.964844 L 25.515625 22.316406 L 25.414062 22.246094 L 25.28125 22.417969 L 24.679688 21.984375 L 24.726562 21.921875 L 25.554688 21.980469 C 25.742188 21.992188 25.773438 21.976562 25.878906 21.839844 L 26.105469 21.546875 Z M 26.003906 21.472656 "/>
<path style=" stroke:none;fill-rule:nonzero;fill:rgb(0%,21.960784%,39.607843%);fill-opacity:1;" d="M 2.394531 18.367188 L 2.195312 17.578125 L 2.316406 17.550781 L 2.371094 17.761719 L 3.128906 17.582031 L 2.898438 16.671875 L 2.140625 16.851562 L 2.191406 17.058594 L 2.070312 17.089844 L 1.875 16.304688 L 1.992188 16.273438 L 2.046875 16.488281 L 3.714844 16.09375 L 3.664062 15.878906 L 3.78125 15.851562 L 3.980469 16.636719 L 3.859375 16.664062 L 3.804688 16.457031 L 3.070312 16.628906 L 3.300781 17.539062 L 4.035156 17.367188 L 3.980469 17.15625 L 4.105469 17.128906 L 4.304688 17.914062 L 4.183594 17.941406 L 4.128906 17.730469 L 2.460938 18.125 L 2.515625 18.335938 L 2.394531 18.367188 "/>
<path style=" stroke:none;fill-rule:nonzero;fill:rgb(0%,21.960784%,39.607843%);fill-opacity:1;" d="M 4.171875 20.171875 C 4.691406 19.941406 4.917969 19.375 4.691406 18.894531 C 4.460938 18.410156 3.871094 18.207031 3.355469 18.433594 C 2.835938 18.664062 2.605469 19.230469 2.832031 19.714844 C 3.058594 20.195312 3.652344 20.402344 4.171875 20.171875 M 3.527344 18.804688 C 3.9375 18.625 4.410156 18.695312 4.535156 18.960938 C 4.660156 19.226562 4.40625 19.621094 3.996094 19.800781 C 3.585938 19.984375 3.109375 19.910156 2.984375 19.644531 C 2.863281 19.378906 3.117188 18.988281 3.527344 18.804688 Z M 3.527344 18.804688 "/>
<path style=" stroke:none;fill-rule:nonzero;fill:rgb(0%,21.960784%,39.607843%);fill-opacity:1;" d="M 4.925781 22.914062 L 4.410156 22.222656 L 4.507812 22.148438 L 4.65625 22.347656 L 5.699219 21.613281 L 4.144531 21.917969 L 4.871094 20.550781 L 3.847656 21.269531 L 3.996094 21.464844 L 3.894531 21.535156 L 3.492188 20.996094 L 3.589844 20.925781 L 3.738281 21.121094 L 5.128906 20.144531 L 4.980469 19.949219 L 5.082031 19.878906 L 5.390625 20.289062 L 4.6875 21.632812 L 6.171875 21.332031 L 6.519531 21.796875 L 6.417969 21.867188 L 6.269531 21.671875 L 4.882812 22.648438 L 5.03125 22.84375 L 4.925781 22.914062 "/>
<path style=" stroke:none;fill-rule:nonzero;fill:rgb(0%,21.960784%,39.607843%);fill-opacity:1;" d="M 6.476562 24.394531 L 5.433594 23.460938 L 5.519531 23.371094 L 5.6875 23.519531 L 6.847656 22.296875 L 6.683594 22.148438 L 6.765625 22.058594 L 7.671875 22.867188 L 7.726562 22.804688 L 7.847656 22.910156 L 7.523438 23.25 L 7.40625 23.144531 L 7.554688 22.996094 L 7.097656 22.585938 L 6.621094 23.085938 L 6.972656 23.398438 L 7.109375 23.253906 L 7.230469 23.359375 L 6.832031 23.777344 L 6.710938 23.675781 L 6.851562 23.523438 L 6.5 23.210938 L 6.003906 23.738281 L 6.476562 24.160156 L 6.628906 24.003906 L 6.746094 24.109375 L 6.476562 24.394531 "/>
<path style=" stroke:none;fill-rule:nonzero;fill:rgb(0%,21.960784%,39.607843%);fill-opacity:1;" d="M 8.25 25.570312 L 7.085938 24.808594 L 7.15625 24.710938 L 7.34375 24.832031 L 8.300781 23.453125 L 8.113281 23.332031 L 8.183594 23.230469 L 8.875 23.679688 L 8.804688 23.78125 L 8.621094 23.660156 L 7.691406 25 L 8.214844 25.34375 L 8.339844 25.167969 L 8.472656 25.253906 L 8.25 25.570312 "/>
<path style=" stroke:none;fill-rule:nonzero;fill:rgb(0%,21.960784%,39.607843%);fill-opacity:1;" d="M 10.398438 26.457031 L 10.285156 26.40625 L 10.402344 24.429688 L 10.238281 24.355469 L 8.746094 25.726562 L 8.578125 25.652344 L 8.527344 25.765625 L 9.089844 26.011719 L 9.140625 25.902344 L 8.925781 25.804688 L 9.300781 25.457031 L 9.960938 25.746094 L 9.925781 26.25 L 9.738281 26.164062 L 9.683594 26.273438 L 10.347656 26.566406 L 10.398438 26.457031 M 9.441406 25.324219 L 10.023438 24.789062 L 9.972656 25.5625 Z M 9.441406 25.324219 "/>
<path style=" stroke:none;fill-rule:nonzero;fill:rgb(0%,21.960784%,39.607843%);fill-opacity:1;" d="M 12.460938 27.140625 L 12.257812 27.089844 L 11.589844 25.480469 L 11.285156 26.707031 L 11.515625 26.761719 L 11.488281 26.878906 L 10.832031 26.726562 L 10.859375 26.609375 L 11.101562 26.664062 L 11.464844 25.191406 L 11.40625 25.027344 L 11.199219 24.976562 L 11.226562 24.859375 L 11.804688 24.992188 L 12.421875 26.503906 L 12.714844 25.328125 L 12.484375 25.277344 L 12.515625 25.15625 L 13.171875 25.308594 L 13.140625 25.429688 L 12.894531 25.371094 L 12.460938 27.140625 "/>
<path style=" stroke:none;fill-rule:nonzero;fill:rgb(0%,21.960784%,39.607843%);fill-opacity:1;" d="M 14.320312 27.28125 C 14.613281 27.292969 14.828125 27.222656 15.019531 27.054688 C 15.230469 26.871094 15.351562 26.625 15.359375 26.359375 C 15.378906 25.828125 14.957031 25.398438 14.394531 25.375 L 13.464844 25.34375 L 13.460938 25.464844 L 13.6875 25.472656 L 13.625 27.136719 L 13.398438 27.128906 L 13.394531 27.25 L 14.320312 27.28125 M 14.09375 25.59375 L 14.34375 25.601562 C 14.695312 25.613281 14.976562 25.988281 14.964844 26.414062 C 14.945312 26.867188 14.648438 27.199219 14.277344 27.1875 L 14.035156 27.175781 Z M 14.09375 25.59375 "/>
<path style=" stroke:none;fill-rule:nonzero;fill:rgb(100%,100%,100%);fill-opacity:1;" d="M 14.988281 18.804688 L 14.894531 18.804688 C 14.847656 18.515625 14.632812 18.339844 14.316406 18.246094 C 14.078125 18.171875 13.730469 18.066406 12.988281 17.84375 C 12.128906 17.589844 11.6875 16.917969 11.628906 16.074219 C 11.546875 14.882812 11.421875 12.789062 11.378906 11.457031 C 12.347656 11.226562 13.78125 11.042969 14.988281 11.042969 C 16.195312 11.042969 17.628906 11.226562 18.601562 11.457031 C 18.558594 12.789062 18.433594 14.882812 18.347656 16.074219 C 18.289062 16.917969 17.851562 17.589844 16.992188 17.84375 C 16.246094 18.066406 15.902344 18.171875 15.664062 18.246094 C 15.347656 18.339844 15.132812 18.515625 15.085938 18.804688 L 14.988281 18.804688 "/>
<path style=" stroke:none;fill-rule:nonzero;fill:rgb(0%,41.960784%,65.098039%);fill-opacity:1;" d="M 14.742188 15.765625 L 14.566406 15.679688 L 14.453125 15.390625 L 14.195312 15.28125 L 13.90625 15.03125 L 13.734375 15.214844 L 13.476562 15.273438 L 13.339844 15.484375 L 13.132812 15.695312 L 12.847656 15.84375 L 12.65625 16.164062 L 12.542969 16.304688 L 12.355469 16.449219 L 12.25 16.339844 L 12.136719 16.445312 L 11.996094 16.695312 C 11.921875 16.507812 11.875 16.363281 11.855469 16.058594 C 11.8125 15.5 11.769531 14.796875 11.730469 14.078125 C 12.683594 13.878906 13.894531 13.746094 14.878906 13.738281 L 14.878906 15.917969 C 14.835938 15.890625 14.789062 15.871094 14.742188 15.765625 "/>
<path style=" stroke:none;fill-rule:nonzero;fill:rgb(39.607843%,55.294118%,10.588235%);fill-opacity:1;" d="M 14.878906 16.816406 L 12.046875 16.816406 C 12.089844 16.898438 12.136719 16.980469 12.191406 17.054688 C 12.394531 17.332031 12.6875 17.535156 13.054688 17.644531 C 13.554688 17.792969 13.875 17.890625 14.105469 17.964844 L 14.382812 18.046875 C 14.609375 18.117188 14.769531 18.214844 14.878906 18.324219 L 14.878906 16.816406 "/>
<path style=" stroke:none;fill-rule:nonzero;fill:rgb(0%,21.960784%,39.607843%);fill-opacity:1;" d="M 17.875 15.753906 C 17.949219 15.691406 18.039062 15.621094 18.15625 15.582031 C 18.175781 15.324219 18.191406 15.050781 18.210938 14.765625 C 18.179688 14.789062 18.144531 14.8125 18.105469 14.84375 C 17.96875 14.949219 17.800781 15.082031 17.503906 15.082031 C 17.226562 15.082031 17.042969 14.976562 16.898438 14.886719 C 16.78125 14.816406 16.6875 14.761719 16.546875 14.761719 C 16.394531 14.761719 16.265625 14.839844 16.125 14.921875 C 15.972656 15.007812 15.804688 15.105469 15.59375 15.105469 C 15.378906 15.105469 15.226562 15.042969 15.097656 14.976562 L 15.097656 15.746094 C 15.128906 15.761719 15.15625 15.777344 15.183594 15.796875 C 15.308594 15.871094 15.417969 15.9375 15.59375 15.9375 C 15.703125 15.9375 15.808594 15.875 15.933594 15.800781 C 16.101562 15.703125 16.292969 15.59375 16.546875 15.59375 C 16.789062 15.59375 16.949219 15.6875 17.09375 15.769531 C 17.21875 15.847656 17.328125 15.914062 17.503906 15.914062 C 17.671875 15.914062 17.761719 15.84375 17.875 15.753906 "/>
<path style=" stroke:none;fill-rule:nonzero;fill:rgb(0%,21.960784%,39.607843%);fill-opacity:1;" d="M 15.59375 17.511719 C 15.378906 17.511719 15.226562 17.449219 15.097656 17.378906 L 15.097656 18.324219 C 15.210938 18.214844 15.367188 18.117188 15.597656 18.046875 L 15.871094 17.964844 C 16.105469 17.890625 16.421875 17.792969 16.925781 17.644531 C 17.070312 17.601562 17.203125 17.542969 17.328125 17.472656 C 17.144531 17.4375 17.011719 17.359375 16.898438 17.292969 C 16.78125 17.222656 16.6875 17.167969 16.546875 17.167969 C 16.394531 17.167969 16.265625 17.242188 16.125 17.324219 C 15.972656 17.410156 15.804688 17.511719 15.59375 17.511719 "/>
<path style=" stroke:none;fill-rule:nonzero;fill:rgb(0%,41.960784%,65.098039%);fill-opacity:1;" d="M 17.875 14.566406 C 17.964844 14.496094 18.078125 14.40625 18.234375 14.375 C 18.238281 14.273438 18.246094 14.175781 18.25 14.078125 C 17.296875 13.878906 16.085938 13.746094 15.097656 13.738281 L 15.097656 14.558594 C 15.128906 14.578125 15.15625 14.59375 15.183594 14.609375 C 15.308594 14.683594 15.417969 14.75 15.59375 14.75 C 15.703125 14.75 15.808594 14.6875 15.933594 14.613281 C 16.101562 14.515625 16.292969 14.40625 16.546875 14.40625 C 16.789062 14.40625 16.949219 14.503906 17.09375 14.585938 C 17.21875 14.660156 17.328125 14.726562 17.503906 14.726562 C 17.671875 14.726562 17.761719 14.65625 17.875 14.566406 "/>
<path style=" stroke:none;fill-rule:nonzero;fill:rgb(0%,41.960784%,65.098039%);fill-opacity:1;" d="M 15.097656 16.160156 L 15.097656 16.964844 C 15.128906 16.980469 15.15625 16.996094 15.183594 17.011719 C 15.308594 17.089844 15.417969 17.15625 15.59375 17.15625 C 15.703125 17.15625 15.808594 17.09375 15.933594 17.019531 C 16.101562 16.921875 16.292969 16.8125 16.546875 16.8125 C 16.789062 16.8125 16.949219 16.90625 17.09375 16.988281 C 17.21875 17.066406 17.328125 17.132812 17.503906 17.132812 C 17.640625 17.132812 17.722656 17.085938 17.8125 17.019531 C 17.992188 16.757812 18.101562 16.433594 18.125 16.058594 C 18.125 16.042969 18.128906 16.027344 18.128906 16.011719 C 18.121094 16.015625 18.113281 16.023438 18.105469 16.03125 C 17.96875 16.136719 17.800781 16.269531 17.503906 16.269531 C 17.226562 16.269531 17.042969 16.160156 16.898438 16.074219 C 16.78125 16.003906 16.6875 15.949219 16.546875 15.949219 C 16.394531 15.949219 16.265625 16.023438 16.125 16.105469 C 15.972656 16.191406 15.804688 16.292969 15.59375 16.292969 C 15.378906 16.292969 15.226562 16.230469 15.097656 16.160156 "/>
<path style=" stroke:none;fill-rule:nonzero;fill:rgb(0%,21.960784%,39.607843%);fill-opacity:1;" d="M 11.71875 13.867188 C 11.671875 13.0625 11.632812 12.253906 11.609375 11.617188 C 12.613281 11.398438 13.945312 11.25 14.988281 11.25 C 16.035156 11.25 17.367188 11.398438 18.371094 11.617188 C 18.347656 12.253906 18.308594 13.0625 18.261719 13.867188 C 17.316406 13.671875 16.0625 13.527344 14.988281 13.527344 C 13.914062 13.527344 12.664062 13.671875 11.71875 13.867188 "/>
<path style=" stroke:none;fill-rule:nonzero;fill:rgb(100%,100%,100%);fill-opacity:1;" d="M 12.378906 12.148438 L 12.414062 11.976562 L 12.25 11.902344 L 12.429688 11.882812 L 12.445312 11.710938 L 12.519531 11.871094 L 12.695312 11.835938 L 12.5625 11.953125 L 12.65625 12.105469 L 12.496094 12.015625 L 12.378906 12.148438 "/>
<path style=" stroke:none;fill-rule:nonzero;fill:rgb(100%,100%,100%);fill-opacity:1;" d="M 13.480469 12.007812 L 13.328125 11.910156 L 13.199219 12.039062 L 13.246094 11.867188 L 13.085938 11.785156 L 13.265625 11.773438 L 13.292969 11.601562 L 13.355469 11.765625 L 13.535156 11.738281 L 13.394531 11.851562 L 13.480469 12.007812 "/>
<path style=" stroke:none;fill-rule:nonzero;fill:rgb(100%,100%,100%);fill-opacity:1;" d="M 14.308594 11.945312 L 14.160156 11.839844 L 14.027344 11.960938 L 14.082031 11.792969 L 13.925781 11.707031 L 14.105469 11.703125 L 14.140625 11.53125 L 14.199219 11.699219 L 14.378906 11.679688 L 14.230469 11.78125 L 14.308594 11.945312 "/>
<path style=" stroke:none;fill-rule:nonzero;fill:rgb(100%,100%,100%);fill-opacity:1;" d="M 15.132812 11.925781 L 14.992188 11.816406 L 14.855469 11.925781 L 14.917969 11.761719 L 14.765625 11.664062 L 14.945312 11.675781 L 14.992188 11.503906 L 15.039062 11.675781 L 15.21875 11.664062 L 15.070312 11.761719 L 15.132812 11.925781 "/>
<path style=" stroke:none;fill-rule:nonzero;fill:rgb(100%,100%,100%);fill-opacity:1;" d="M 17.488281 12.019531 L 17.332031 12.105469 L 17.421875 11.953125 L 17.289062 11.835938 L 17.464844 11.871094 L 17.539062 11.710938 L 17.558594 11.886719 L 17.738281 11.90625 L 17.570312 11.976562 L 17.609375 12.148438 L 17.488281 12.019531 "/>
<path style=" stroke:none;fill-rule:nonzero;fill:rgb(100%,100%,100%);fill-opacity:1;" d="M 16.589844 11.851562 L 16.449219 11.738281 L 16.625 11.765625 L 16.695312 11.601562 L 16.722656 11.773438 L 16.902344 11.785156 L 16.738281 11.867188 L 16.785156 12.039062 L 16.65625 11.910156 L 16.507812 12.007812 L 16.589844 11.851562 "/>
<path style=" stroke:none;fill-rule:nonzero;fill:rgb(100%,100%,100%);fill-opacity:1;" d="M 15.753906 11.785156 L 15.609375 11.679688 L 15.789062 11.699219 L 15.847656 11.53125 L 15.882812 11.703125 L 16.0625 11.707031 L 15.90625 11.792969 L 15.960938 11.960938 L 15.828125 11.839844 L 15.679688 11.945312 L 15.753906 11.785156 "/>
<path style=" stroke:none;fill-rule:nonzero;fill:rgb(100%,100%,100%);fill-opacity:1;" d="M 12.496094 13.445312 L 12.535156 13.273438 L 12.371094 13.199219 L 12.550781 13.183594 L 12.570312 13.007812 L 12.644531 13.171875 L 12.820312 13.136719 L 12.6875 13.253906 L 12.773438 13.40625 L 12.617188 13.316406 L 12.496094 13.445312 "/>
<path style=" stroke:none;fill-rule:nonzero;fill:rgb(100%,100%,100%);fill-opacity:1;" d="M 13.570312 13.316406 L 13.417969 13.21875 L 13.289062 13.34375 L 13.335938 13.171875 L 13.175781 13.089844 L 13.355469 13.082031 L 13.386719 12.90625 L 13.449219 13.074219 L 13.628906 13.046875 L 13.488281 13.15625 L 13.570312 13.316406 "/>
<path style=" stroke:none;fill-rule:nonzero;fill:rgb(100%,100%,100%);fill-opacity:1;" d="M 14.367188 13.257812 L 14.21875 13.15625 L 14.085938 13.273438 L 14.140625 13.105469 L 13.984375 13.019531 L 14.164062 13.019531 L 14.199219 12.84375 L 14.257812 13.011719 L 14.4375 12.992188 L 14.292969 13.097656 L 14.367188 13.257812 "/>
<path style=" stroke:none;fill-rule:nonzero;fill:rgb(100%,100%,100%);fill-opacity:1;" d="M 15.160156 13.246094 L 15.019531 13.132812 L 14.878906 13.246094 L 14.945312 13.078125 L 14.792969 12.980469 L 14.972656 12.992188 L 15.019531 12.820312 L 15.066406 12.992188 L 15.246094 12.980469 L 15.097656 13.078125 L 15.160156 13.246094 "/>
<path style=" stroke:none;fill-rule:nonzero;fill:rgb(100%,100%,100%);fill-opacity:1;" d="M 17.421875 13.324219 L 17.265625 13.414062 L 17.359375 13.261719 L 17.222656 13.144531 L 17.398438 13.179688 L 17.472656 13.019531 L 17.492188 13.191406 L 17.671875 13.210938 L 17.507812 13.285156 L 17.546875 13.457031 L 17.421875 13.324219 "/>
<path style=" stroke:none;fill-rule:nonzero;fill:rgb(100%,100%,100%);fill-opacity:1;" d="M 16.554688 13.164062 L 16.414062 13.050781 L 16.59375 13.078125 L 16.65625 12.914062 L 16.683594 13.089844 L 16.867188 13.097656 L 16.703125 13.179688 L 16.75 13.351562 L 16.625 13.222656 L 16.472656 13.320312 L 16.554688 13.164062 "/>
<path style=" stroke:none;fill-rule:nonzero;fill:rgb(100%,100%,100%);fill-opacity:1;" d="M 15.75 13.101562 L 15.605469 12.996094 L 15.785156 13.015625 L 15.84375 12.847656 L 15.878906 13.019531 L 16.058594 13.023438 L 15.902344 13.109375 L 15.957031 13.277344 L 15.824219 13.160156 L 15.675781 13.261719 L 15.75 13.101562 "/>
<path style=" stroke:none;fill-rule:nonzero;fill:rgb(100%,100%,100%);fill-opacity:1;" d="M 12.890625 12.679688 L 12.933594 12.507812 L 12.773438 12.429688 L 12.953125 12.417969 L 12.976562 12.242188 L 13.042969 12.40625 L 13.222656 12.375 L 13.085938 12.488281 L 13.171875 12.644531 L 13.015625 12.550781 L 12.890625 12.679688 "/>
<path style=" stroke:none;fill-rule:nonzero;fill:rgb(100%,100%,100%);fill-opacity:1;" d="M 12.101562 12.800781 L 12.136719 12.628906 L 11.972656 12.558594 L 12.148438 12.539062 L 12.167969 12.363281 L 12.242188 12.523438 L 12.417969 12.488281 L 12.285156 12.605469 L 12.378906 12.757812 L 12.21875 12.667969 L 12.101562 12.800781 "/>
<path style=" stroke:none;fill-rule:nonzero;fill:rgb(100%,100%,100%);fill-opacity:1;" d="M 13.960938 12.574219 L 13.8125 12.472656 L 13.683594 12.59375 L 13.734375 12.421875 L 13.574219 12.339844 L 13.753906 12.335938 L 13.785156 12.160156 L 13.847656 12.328125 L 14.027344 12.304688 L 13.882812 12.414062 L 13.960938 12.574219 "/>
<path style=" stroke:none;fill-rule:nonzero;fill:rgb(100%,100%,100%);fill-opacity:1;" d="M 14.753906 12.535156 L 14.609375 12.425781 L 14.476562 12.542969 L 14.535156 12.375 L 14.378906 12.285156 L 14.558594 12.289062 L 14.601562 12.117188 L 14.652344 12.285156 L 14.832031 12.273438 L 14.683594 12.371094 L 14.753906 12.535156 "/>
<path style=" stroke:none;fill-rule:nonzero;fill:rgb(100%,100%,100%);fill-opacity:1;" d="M 15.546875 12.546875 L 15.410156 12.429688 L 15.269531 12.535156 L 15.335938 12.371094 L 15.191406 12.273438 L 15.371094 12.285156 L 15.421875 12.117188 L 15.464844 12.289062 L 15.644531 12.285156 L 15.488281 12.378906 L 15.546875 12.546875 "/>
<path style=" stroke:none;fill-rule:nonzero;fill:rgb(100%,100%,100%);fill-opacity:1;" d="M 17.804688 12.675781 L 17.644531 12.761719 L 17.738281 12.609375 L 17.609375 12.488281 L 17.78125 12.527344 L 17.859375 12.367188 L 17.875 12.542969 L 18.054688 12.566406 L 17.886719 12.636719 L 17.921875 12.808594 L 17.804688 12.675781 "/>
<path style=" stroke:none;fill-rule:nonzero;fill:rgb(100%,100%,100%);fill-opacity:1;" d="M 16.9375 12.496094 L 16.800781 12.378906 L 16.976562 12.410156 L 17.046875 12.246094 L 17.070312 12.421875 L 17.25 12.4375 L 17.089844 12.511719 L 17.128906 12.683594 L 17.007812 12.558594 L 16.851562 12.652344 L 16.9375 12.496094 "/>
<path style=" stroke:none;fill-rule:nonzero;fill:rgb(100%,100%,100%);fill-opacity:1;" d="M 16.136719 12.414062 L 15.996094 12.308594 L 16.175781 12.332031 L 16.234375 12.164062 L 16.265625 12.335938 L 16.449219 12.34375 L 16.289062 12.425781 L 16.339844 12.597656 L 16.207031 12.476562 L 16.058594 12.574219 L 16.136719 12.414062 "/>
<path style=" stroke:none;fill-rule:nonzero;fill:rgb(100%,100%,100%);fill-opacity:1;" d="M 6.9375 16.46875 C 7.203125 16.101562 7.703125 16.023438 7.476562 15.039062 C 6.910156 15.277344 6.644531 15.964844 6.9375 16.46875 "/>
<path style=" stroke:none;fill-rule:nonzero;fill:rgb(100%,100%,100%);fill-opacity:1;" d="M 6.898438 14.003906 C 6.71875 14.078125 6.460938 14.324219 6.34375 14.644531 C 6.535156 14.859375 6.617188 15.125 6.605469 15.363281 C 6.957031 15.054688 7.074219 14.519531 6.898438 14.003906 "/>
<path style=" stroke:none;fill-rule:nonzero;fill:rgb(100%,100%,100%);fill-opacity:1;" d="M 7.238281 17.417969 C 7.261719 17.417969 7.253906 17.417969 7.230469 17.410156 C 6.960938 17.265625 6.773438 17.214844 6.40625 17.261719 C 6.75 17.289062 6.992188 17.335938 7.238281 17.417969 "/>
<path style=" stroke:none;fill-rule:nonzero;fill:rgb(100%,100%,100%);fill-opacity:1;" d="M 8.355469 18.613281 C 8.351562 18.621094 8.347656 18.628906 8.34375 18.636719 C 8.335938 19.035156 8.597656 19.480469 8.128906 20.109375 C 8.105469 20.183594 8.074219 20.347656 8.316406 20.070312 C 8.792969 19.519531 8.386719 19.070312 8.355469 18.613281 "/>
<path style=" stroke:none;fill-rule:nonzero;fill:rgb(100%,100%,100%);fill-opacity:1;" d="M 7.402344 19.238281 C 7.441406 18.988281 7.609375 18.691406 7.859375 18.492188 C 8.035156 18.355469 8.132812 18.304688 7.988281 18.449219 C 7.765625 18.675781 7.507812 19.039062 7.402344 19.238281 "/>
<path style=" stroke:none;fill-rule:nonzero;fill:rgb(100%,100%,100%);fill-opacity:1;" d="M 7.945312 19.914062 C 7.851562 19.683594 7.933594 19.308594 8.039062 19.058594 C 8.109375 18.890625 8.289062 18.632812 8.34375 18.609375 C 8.148438 18.90625 7.9375 19.6875 7.945312 19.914062 "/>
<path style=" stroke:none;fill-rule:nonzero;fill:rgb(100%,100%,100%);fill-opacity:1;" d="M 7.144531 16.65625 C 7.128906 16.570312 7.039062 16.511719 6.949219 16.53125 C 6.855469 16.546875 6.796875 16.632812 6.816406 16.722656 C 6.835938 16.808594 6.925781 16.867188 7.015625 16.851562 C 7.105469 16.832031 7.164062 16.746094 7.144531 16.65625 "/>
<path style=" stroke:none;fill-rule:nonzero;fill:rgb(100%,100%,100%);fill-opacity:1;" d="M 8.613281 16.878906 C 8.617188 16.636719 8.578125 16.386719 8.609375 16.101562 C 8.109375 16.457031 7.9375 17.078125 8.144531 17.511719 C 8.121094 17.507812 8.101562 17.507812 8.078125 17.511719 C 7.984375 17.53125 7.925781 17.621094 7.941406 17.710938 C 7.960938 17.800781 8.054688 17.863281 8.148438 17.84375 C 8.242188 17.824219 8.304688 17.734375 8.285156 17.644531 C 8.273438 17.597656 8.246094 17.558594 8.210938 17.535156 C 8.125 17.152344 8.195312 16.671875 8.402344 16.46875 C 8.339844 16.710938 8.21875 17.214844 8.296875 17.679688 C 8.378906 17.589844 8.441406 17.5 8.484375 17.414062 C 8.496094 17.488281 8.511719 17.5625 8.542969 17.640625 C 8.554688 17.273438 8.683594 16.90625 9.078125 16.652344 C 8.789062 17.007812 8.625 17.425781 8.589844 17.738281 C 8.800781 17.480469 9.277344 17.402344 9.3125 16.382812 C 9.070312 16.457031 8.78125 16.625 8.613281 16.878906 "/>
<path style=" stroke:none;fill-rule:nonzero;fill:rgb(100%,100%,100%);fill-opacity:1;" d="M 8.945312 17.925781 C 8.921875 17.832031 8.828125 17.769531 8.730469 17.789062 C 8.628906 17.808594 8.566406 17.898438 8.585938 17.996094 C 8.605469 18.09375 8.703125 18.152344 8.800781 18.132812 C 8.902344 18.113281 8.964844 18.023438 8.945312 17.925781 "/>
<path style=" stroke:none;fill-rule:nonzero;fill:rgb(100%,100%,100%);fill-opacity:1;" d="M 8.878906 18.464844 C 8.859375 18.367188 8.761719 18.304688 8.664062 18.324219 C 8.566406 18.34375 8.503906 18.4375 8.523438 18.53125 C 8.542969 18.628906 8.636719 18.6875 8.738281 18.671875 C 8.835938 18.652344 8.902344 18.558594 8.878906 18.464844 "/>
<path style=" stroke:none;fill-rule:nonzero;fill:rgb(100%,100%,100%);fill-opacity:1;" d="M 7.824219 15.851562 C 7.453125 16.152344 7.347656 16.527344 7.390625 16.859375 C 7.375 16.859375 7.359375 16.859375 7.347656 16.859375 C 7.269531 16.875 7.21875 16.949219 7.234375 17.023438 C 7.25 17.097656 7.324219 17.144531 7.398438 17.128906 C 7.417969 17.125 7.433594 17.121094 7.449219 17.113281 C 7.480469 17.207031 7.527344 17.296875 7.582031 17.371094 C 7.550781 17.261719 7.527344 17.136719 7.511719 17.011719 C 7.515625 16.996094 7.515625 16.980469 7.511719 16.96875 C 7.511719 16.964844 7.507812 16.960938 7.507812 16.960938 C 7.488281 16.679688 7.535156 16.386719 7.695312 16.175781 C 7.644531 16.484375 7.570312 17.078125 7.640625 17.445312 C 7.75 17.054688 8.335938 16.878906 7.824219 15.851562 "/>
<path style=" stroke:none;fill-rule:nonzero;fill:rgb(100%,100%,100%);fill-opacity:1;" d="M 9.308594 18.167969 C 9.289062 18.09375 9.214844 18.042969 9.136719 18.058594 C 9.0625 18.074219 9.011719 18.148438 9.027344 18.222656 C 9.042969 18.296875 9.117188 18.34375 9.195312 18.328125 C 9.273438 18.3125 9.320312 18.238281 9.308594 18.167969 "/>
<path style=" stroke:none;fill-rule:nonzero;fill:rgb(100%,100%,100%);fill-opacity:1;" d="M 8.523438 18.140625 C 8.507812 18.074219 8.4375 18.027344 8.367188 18.042969 C 8.296875 18.054688 8.25 18.121094 8.265625 18.191406 C 8.277344 18.257812 8.347656 18.304688 8.417969 18.289062 C 8.488281 18.277344 8.535156 18.207031 8.523438 18.140625 "/>
<path style=" stroke:none;fill-rule:nonzero;fill:rgb(100%,100%,100%);fill-opacity:1;" d="M 6.734375 16.398438 C 6.722656 16.339844 6.671875 16.300781 6.617188 16.300781 C 6.433594 16.058594 6.167969 15.800781 5.726562 15.757812 C 5.96875 15.867188 6.332031 16.085938 6.582031 16.304688 C 6.523438 16.320312 6.484375 16.375 6.496094 16.4375 C 6.507812 16.5 6.566406 16.542969 6.636719 16.53125 C 6.699219 16.519531 6.746094 16.460938 6.734375 16.398438 "/>
<path style=" stroke:none;fill-rule:nonzero;fill:rgb(100%,100%,100%);fill-opacity:1;" d="M 6.738281 15.585938 C 6.722656 15.507812 6.640625 15.457031 6.558594 15.472656 C 6.554688 15.472656 6.550781 15.472656 6.546875 15.476562 C 6.449219 15.097656 6.351562 14.800781 5.910156 14.507812 C 6.128906 14.785156 6.386719 15.183594 6.53125 15.480469 C 6.464844 15.507812 6.425781 15.574219 6.4375 15.648438 C 6.453125 15.726562 6.535156 15.777344 6.617188 15.761719 C 6.703125 15.746094 6.753906 15.667969 6.738281 15.585938 "/>
<path style=" stroke:none;fill-rule:nonzero;fill:rgb(100%,100%,100%);fill-opacity:1;" d="M 7.1875 17.074219 C 7.175781 17.011719 7.117188 16.96875 7.046875 16.980469 C 7.015625 16.984375 6.988281 17 6.972656 17.023438 C 6.578125 16.6875 6.308594 16.6875 6.101562 16.679688 C 6.226562 16.722656 6.675781 16.847656 6.960938 17.042969 C 6.949219 17.0625 6.945312 17.085938 6.949219 17.113281 C 6.960938 17.179688 7.023438 17.222656 7.089844 17.210938 C 7.15625 17.199219 7.199219 17.140625 7.1875 17.074219 "/>
<path style=" stroke:none;fill-rule:nonzero;fill:rgb(100%,100%,100%);fill-opacity:1;" d="M 7.515625 17.550781 C 7.5 17.457031 7.40625 17.398438 7.3125 17.417969 C 7.21875 17.433594 7.15625 17.523438 7.175781 17.617188 C 7.195312 17.707031 7.285156 17.765625 7.382812 17.746094 C 7.476562 17.730469 7.535156 17.640625 7.515625 17.550781 "/>
<path style=" stroke:none;fill-rule:nonzero;fill:rgb(100%,100%,100%);fill-opacity:1;" d="M 7.769531 17.839844 C 7.761719 17.777344 7.699219 17.734375 7.632812 17.746094 C 7.589844 17.75 7.554688 17.777344 7.542969 17.8125 C 7.199219 17.769531 6.828125 17.8125 6.515625 17.984375 C 6.867188 17.902344 7.234375 17.832031 7.53125 17.832031 C 7.535156 17.832031 7.535156 17.832031 7.535156 17.832031 C 7.53125 17.847656 7.527344 17.863281 7.53125 17.878906 C 7.542969 17.941406 7.605469 17.988281 7.671875 17.976562 C 7.738281 17.964844 7.78125 17.902344 7.769531 17.839844 "/>
<path style=" stroke:none;fill-rule:nonzero;fill:rgb(100%,100%,100%);fill-opacity:1;" d="M 8.121094 18.039062 C 8.105469 17.957031 8.023438 17.902344 7.9375 17.917969 C 7.851562 17.933594 7.796875 18.015625 7.8125 18.097656 C 7.808594 18.097656 7.804688 18.097656 7.800781 18.09375 C 7.550781 18.085938 7.128906 18.152344 6.871094 18.449219 C 7.132812 18.296875 7.554688 18.140625 7.808594 18.109375 C 7.8125 18.109375 7.8125 18.109375 7.816406 18.109375 C 7.835938 18.183594 7.917969 18.234375 8 18.21875 C 8.082031 18.203125 8.136719 18.121094 8.121094 18.039062 "/>
<path style=" stroke:none;fill-rule:nonzero;fill:rgb(100%,100%,100%);fill-opacity:1;" d="M 10.335938 18.808594 C 11.054688 19.332031 11.464844 20.0625 11.566406 20.648438 C 11.476562 20.585938 11.308594 20.519531 11.203125 20.539062 C 11.109375 19.917969 10.777344 19.417969 10.253906 19.011719 C 10.273438 18.917969 10.304688 18.851562 10.335938 18.808594 "/>
<path style=" stroke:none;fill-rule:nonzero;fill:rgb(100%,100%,100%);fill-opacity:1;" d="M 9.785156 19.351562 C 9.957031 19.417969 10.042969 19.394531 10.085938 19.335938 C 10.175781 19.210938 10.132812 19.042969 10.074219 19.015625 C 10.085938 19.066406 10.085938 19.121094 10.074219 19.179688 C 10.0625 19.230469 10.039062 19.308594 9.941406 19.300781 C 9.890625 19.292969 9.800781 19.269531 9.746094 19.234375 C 9.707031 19.207031 9.707031 19.140625 9.726562 19.085938 C 9.738281 19.058594 9.75 19.019531 9.785156 18.988281 C 9.726562 19.003906 9.691406 19.03125 9.648438 19.066406 C 9.601562 19.101562 9.535156 19.109375 9.496094 19.066406 C 9.445312 19.015625 9.414062 18.976562 9.398438 18.941406 C 9.359375 18.851562 9.480469 18.785156 9.550781 18.75 C 9.429688 18.75 9.40625 18.796875 9.3125 18.78125 C 9.214844 18.765625 9.1875 18.613281 9.1875 18.5625 C 9.1875 18.527344 9.234375 18.492188 9.292969 18.476562 C 9.347656 18.464844 9.410156 18.46875 9.445312 18.472656 C 9.441406 18.449219 9.4375 18.421875 9.4375 18.390625 C 9.339844 18.371094 9.152344 18.402344 9.113281 18.453125 C 9.070312 18.519531 9.082031 18.554688 9.117188 18.671875 C 9.152344 18.789062 9.179688 18.828125 9.257812 18.839844 C 9.277344 18.839844 9.320312 18.847656 9.363281 18.832031 C 9.339844 18.84375 9.324219 18.859375 9.3125 18.886719 C 9.300781 18.917969 9.277344 18.96875 9.371094 19.078125 C 9.453125 19.171875 9.53125 19.207031 9.597656 19.171875 C 9.636719 19.152344 9.648438 19.128906 9.667969 19.113281 C 9.65625 19.136719 9.644531 19.164062 9.640625 19.191406 C 9.621094 19.285156 9.695312 19.320312 9.785156 19.351562 "/>
<path style=" stroke:none;fill-rule:nonzero;fill:rgb(100%,100%,100%);fill-opacity:1;" d="M 9.660156 18.628906 C 9.707031 18.566406 9.828125 18.5625 9.894531 18.601562 C 9.847656 18.6875 9.84375 18.824219 9.867188 18.894531 C 9.699219 18.867188 9.667969 18.710938 9.660156 18.628906 "/>
<path style=" stroke:none;fill-rule:nonzero;fill:rgb(100%,100%,100%);fill-opacity:1;" d="M 9.925781 18.617188 C 10.023438 18.609375 10.0625 18.5625 10.078125 18.515625 C 10.097656 18.46875 10.152344 18.441406 10.152344 18.511719 C 10.152344 18.582031 10.152344 18.613281 10.113281 18.632812 C 10.070312 18.652344 9.996094 18.660156 9.925781 18.617188 "/>
<path style=" stroke:none;fill-rule:nonzero;fill:rgb(100%,100%,100%);fill-opacity:1;" d="M 9.976562 18.769531 C 9.964844 18.824219 9.945312 18.871094 9.914062 18.917969 C 9.886719 18.957031 9.851562 18.976562 9.824219 19 C 9.871094 19.03125 9.9375 19.050781 9.992188 19.050781 C 10.042969 19.046875 10.046875 19.039062 10.042969 19.019531 C 10.03125 18.929688 9.996094 18.804688 9.976562 18.769531 "/>
<path style=" stroke:none;fill-rule:nonzero;fill:rgb(100%,100%,100%);fill-opacity:1;" d="M 20.007812 18.542969 C 20.054688 18.625 20.058594 18.765625 20.035156 18.832031 C 20.203125 18.808594 20.234375 18.648438 20.246094 18.566406 C 20.195312 18.507812 20.078125 18.5 20.007812 18.542969 "/>
<path style=" stroke:none;fill-rule:nonzero;fill:rgb(100%,100%,100%);fill-opacity:1;" d="M 19.976562 18.558594 C 19.878906 18.550781 19.839844 18.503906 19.824219 18.457031 C 19.804688 18.410156 19.753906 18.382812 19.75 18.453125 C 19.75 18.523438 19.75 18.554688 19.792969 18.574219 C 19.832031 18.59375 19.90625 18.597656 19.976562 18.558594 "/>
<path style=" stroke:none;fill-rule:nonzero;fill:rgb(100%,100%,100%);fill-opacity:1;" d="M 19.988281 18.859375 C 19.957031 18.8125 19.9375 18.761719 19.925781 18.710938 C 19.90625 18.746094 19.871094 18.871094 19.859375 18.960938 C 19.855469 18.980469 19.855469 18.988281 19.914062 18.988281 C 19.96875 18.992188 20.03125 18.972656 20.078125 18.941406 C 20.050781 18.917969 20.015625 18.894531 19.988281 18.859375 "/>
<path style=" stroke:none;fill-rule:nonzero;fill:rgb(100%,100%,100%);fill-opacity:1;" d="M 22.949219 16.242188 L 23.121094 16.285156 L 20.53125 18.269531 L 20.472656 18.316406 C 20.46875 18.316406 20.464844 18.316406 20.460938 18.320312 C 20.460938 18.347656 20.460938 18.375 20.457031 18.402344 C 20.492188 18.398438 20.542969 18.398438 20.585938 18.410156 C 20.640625 18.425781 20.6875 18.460938 20.683594 18.496094 C 20.683594 18.546875 20.65625 18.699219 20.558594 18.710938 C 20.460938 18.726562 20.441406 18.679688 20.320312 18.675781 C 20.386719 18.714844 20.507812 18.78125 20.460938 18.871094 C 20.445312 18.90625 20.414062 18.945312 20.363281 18.996094 C 20.324219 19.035156 20.257812 19.027344 20.214844 18.988281 C 20.167969 18.953125 20.136719 18.921875 20.078125 18.910156 C 20.113281 18.9375 20.121094 18.976562 20.132812 19.003906 C 20.152344 19.058594 20.152344 19.128906 20.113281 19.152344 C 20.054688 19.1875 19.960938 19.207031 19.910156 19.210938 C 19.816406 19.222656 19.792969 19.140625 19.785156 19.089844 C 19.773438 19.03125 19.773438 18.976562 19.789062 18.925781 C 19.730469 18.953125 19.679688 19.117188 19.769531 19.246094 C 19.808594 19.304688 19.894531 19.332031 20.066406 19.273438 C 20.160156 19.242188 20.234375 19.207031 20.21875 19.113281 C 20.210938 19.085938 20.203125 19.058594 20.191406 19.03125 C 20.210938 19.050781 20.222656 19.074219 20.257812 19.09375 C 20.324219 19.132812 20.40625 19.097656 20.488281 19.007812 C 20.582031 18.902344 20.566406 18.847656 20.554688 18.816406 C 20.542969 18.789062 20.527344 18.773438 20.503906 18.761719 C 20.546875 18.777344 20.585938 18.773438 20.609375 18.769531 C 20.6875 18.761719 20.714844 18.722656 20.753906 18.609375 C 20.792969 18.492188 20.804688 18.457031 20.761719 18.390625 C 20.742188 18.363281 20.683594 18.339844 20.613281 18.324219 L 23.183594 16.363281 L 23.1875 16.535156 L 23.648438 15.941406 L 22.949219 16.242188 "/>
<path style=" stroke:none;fill-rule:nonzero;fill:rgb(100%,100%,100%);fill-opacity:1;" d="M 21.566406 16.851562 L 23.390625 14.609375 L 23.441406 14.777344 L 23.746094 14.097656 L 23.136719 14.546875 L 23.316406 14.550781 L 21.664062 16.582031 C 21.535156 16.773438 21.398438 16.972656 21.265625 17.164062 L 21.269531 17.164062 C 21.367188 17.0625 21.46875 16.957031 21.566406 16.851562 "/>
<path style=" stroke:none;fill-rule:nonzero;fill:rgb(100%,100%,100%);fill-opacity:1;" d="M 21.351562 17.515625 C 21.503906 17.398438 21.664062 17.277344 21.820312 17.15625 L 23.339844 15.792969 L 23.363281 15.964844 L 23.769531 15.335938 L 23.097656 15.691406 L 23.273438 15.722656 L 21.746094 17.09375 C 21.613281 17.238281 21.476562 17.378906 21.351562 17.515625 "/>
<path style=" stroke:none;fill-rule:nonzero;fill:rgb(100%,100%,100%);fill-opacity:1;" d="M 23.039062 17.195312 L 20.898438 18.234375 C 20.863281 18.261719 20.832031 18.285156 20.8125 18.300781 C 20.828125 18.3125 20.839844 18.324219 20.847656 18.339844 C 20.855469 18.34375 20.855469 18.351562 20.859375 18.355469 L 23.082031 17.28125 L 23.050781 17.449219 L 23.628906 16.960938 L 22.878906 17.117188 L 23.039062 17.195312 "/>
<path style=" stroke:none;fill-rule:nonzero;fill:rgb(100%,100%,100%);fill-opacity:1;" d="M 19.804688 19.390625 C 19.773438 19.378906 19.746094 19.367188 19.722656 19.34375 L 19.339844 20.113281 L 19.199219 20.160156 L 18.746094 21.003906 L 18.96875 20.9375 L 19.046875 21.148438 L 19.476562 20.292969 L 19.425781 20.15625 L 19.804688 19.390625 "/>
<path style=" stroke:none;fill-rule:nonzero;fill:rgb(100%,100%,100%);fill-opacity:1;" d="M 21.296875 17.929688 C 21.445312 17.859375 21.613281 17.773438 21.785156 17.691406 L 23.207031 16.789062 L 23.199219 16.964844 L 23.710938 16.414062 L 22.988281 16.652344 L 23.152344 16.710938 L 21.605469 17.691406 C 21.496094 17.777344 21.390625 17.855469 21.296875 17.929688 "/>
<path style=" stroke:none;fill-rule:nonzero;fill:rgb(100%,100%,100%);fill-opacity:1;" d="M 19.632812 19.1875 C 19.621094 19.144531 19.617188 19.101562 19.621094 19.058594 L 19.113281 19.597656 L 18.960938 19.609375 L 18.949219 19.621094 L 18.242188 20.308594 L 18.273438 20.304688 L 18.273438 20.308594 L 18.28125 20.304688 L 18.453125 20.296875 L 18.484375 20.464844 L 19.070312 19.71875 L 19.183594 19.695312 L 19.632812 19.1875 "/>
<path style=" stroke:none;fill-rule:nonzero;fill:rgb(100%,100%,100%);fill-opacity:1;" d="M 20.566406 18.113281 C 20.628906 18.066406 20.71875 18 20.828125 17.914062 L 23.324219 15.269531 L 23.359375 15.4375 L 23.714844 14.785156 L 23.074219 15.1875 L 23.25 15.207031 L 20.636719 17.976562 C 20.613281 18.027344 20.589844 18.074219 20.566406 18.113281 "/>
<path style=" stroke:none;fill-rule:nonzero;fill:rgb(100%,100%,100%);fill-opacity:1;" d="M 18.332031 19.925781 L 19.261719 19.289062 C 19.371094 19.175781 19.488281 19.054688 19.527344 19.007812 L 18.367188 19.753906 L 18.21875 19.726562 L 18.136719 19.777344 L 17.390625 20.226562 L 17.601562 20.269531 L 17.625 20.421875 L 18.226562 19.917969 L 18.332031 19.925781 "/>
<path style=" stroke:none;fill-rule:nonzero;fill:rgb(100%,100%,100%);fill-opacity:1;" d="M 17.5625 20.007812 L 17.933594 19.78125 L 18.28125 19.550781 L 18.402344 19.574219 C 18.402344 19.574219 19.25 19.066406 19.453125 18.9375 C 19.464844 18.929688 19.472656 18.925781 19.472656 18.925781 C 19.472656 18.925781 19.476562 18.921875 19.476562 18.921875 L 18.367188 19.460938 L 18.222656 19.417969 L 17.339844 19.824219 L 17.539062 19.894531 L 17.5625 20.007812 "/>
<path style=" stroke:none;fill-rule:nonzero;fill:rgb(100%,100%,100%);fill-opacity:1;" d="M 21.757812 15.027344 L 21.933594 14.996094 L 20.335938 18.136719 C 20.347656 18.144531 20.359375 18.148438 20.367188 18.152344 C 20.386719 18.164062 20.402344 18.179688 20.414062 18.191406 L 22.019531 15.039062 L 22.101562 15.191406 L 22.257812 14.464844 L 21.757812 15.027344 "/>
<path style=" stroke:none;fill-rule:nonzero;fill:rgb(100%,100%,100%);fill-opacity:1;" d="M 21.949219 15.554688 L 22.128906 15.546875 L 21.125 17.023438 C 21.007812 17.253906 20.890625 17.480469 20.792969 17.675781 C 20.796875 17.671875 20.800781 17.667969 20.804688 17.660156 L 22.210938 15.601562 L 22.269531 15.761719 L 22.519531 15.058594 L 21.949219 15.554688 "/>
</g>
</svg>
