<?xml version="1.0" encoding="UTF-8"?>
<svg xmlns="http://www.w3.org/2000/svg" xmlns:xlink="http://www.w3.org/1999/xlink" width="30px" height="30px" viewBox="0 0 30 30" version="1.1">
<g id="surface1">
<path style=" stroke:none;fill-rule:nonzero;fill:rgb(100%,43.921569%,34.509804%);fill-opacity:1;" d="M 30 15 C 30 23.285156 23.285156 30 15 30 C 6.714844 30 0 23.285156 0 15 C 0 6.714844 6.714844 0 15 0 C 23.285156 0 30 6.714844 30 15 Z M 30 15 "/>
<path style=" stroke:none;fill-rule:nonzero;fill:rgb(94.509804%,32.941176%,24.705882%);fill-opacity:1;" d="M 2.589844 23.429688 C 5.289062 27.398438 9.835938 30 15 30 C 20.164062 30 24.710938 27.390625 27.410156 23.429688 Z M 2.589844 23.429688 "/>
<path style=" stroke:none;fill-rule:nonzero;fill:rgb(100%,100%,100%);fill-opacity:1;" d="M 6.253906 8.726562 L 23.722656 8.726562 L 23.722656 22.148438 L 6.253906 22.148438 Z M 6.253906 8.726562 "/>
<path style=" stroke:none;fill-rule:nonzero;fill:rgb(100%,81.568627%,35.686275%);fill-opacity:1;" d="M 6.253906 8.726562 L 23.722656 8.726562 L 23.722656 22.148438 L 6.253906 22.148438 Z M 6.253906 8.726562 "/>
<path style=" stroke:none;fill-rule:nonzero;fill:rgb(19.607843%,29.019608%,36.862745%);fill-opacity:1;" d="M 24.476562 9.761719 L 5.5 9.761719 C 5.484375 9.761719 5.464844 9.742188 5.464844 9.726562 L 5.464844 7.011719 C 5.464844 6.992188 5.484375 6.972656 5.5 6.972656 L 24.480469 6.972656 C 24.5 6.972656 24.515625 6.992188 24.515625 7.011719 L 24.515625 9.726562 C 24.511719 9.75 24.492188 9.761719 24.476562 9.761719 Z M 24.476562 9.761719 "/>
<path style=" stroke:none;fill-rule:nonzero;fill:rgb(19.607843%,29.019608%,36.862745%);fill-opacity:1;" d="M 5.464844 22.148438 L 24.511719 22.148438 L 24.511719 23.421875 L 5.464844 23.421875 Z M 5.464844 22.148438 "/>
<path style=" stroke:none;fill-rule:nonzero;fill:rgb(100%,100%,100%);fill-opacity:1;" d="M 25.640625 11.882812 L 22.585938 11.882812 L 20.523438 9.761719 L 22.746094 9.761719 Z M 25.640625 11.882812 "/>
<path style=" stroke:none;fill-rule:nonzero;fill:rgb(100%,100%,100%);fill-opacity:1;" d="M 7.382812 11.882812 L 4.335938 11.882812 L 7.222656 9.761719 L 9.445312 9.761719 Z M 7.382812 11.882812 "/>
<path style=" stroke:none;fill-rule:nonzero;fill:rgb(51.764706%,85.882353%,100%);fill-opacity:1;" d="M 22.597656 11.882812 L 19.542969 11.882812 L 18.308594 9.761719 L 20.53125 9.761719 Z M 22.597656 11.882812 "/>
<path style=" stroke:none;fill-rule:nonzero;fill:rgb(100%,100%,100%);fill-opacity:1;" d="M 19.554688 11.882812 L 16.503906 11.882812 L 16.09375 9.761719 L 18.316406 9.761719 Z M 19.554688 11.882812 "/>
<path style=" stroke:none;fill-rule:nonzero;fill:rgb(51.764706%,85.882353%,100%);fill-opacity:1;" d="M 16.515625 11.882812 L 13.460938 11.882812 L 13.878906 9.761719 L 16.097656 9.761719 Z M 16.515625 11.882812 "/>
<path style=" stroke:none;fill-rule:nonzero;fill:rgb(51.764706%,85.882353%,100%);fill-opacity:1;" d="M 10.425781 11.882812 L 7.378906 11.882812 L 9.441406 9.761719 L 11.667969 9.761719 Z M 10.425781 11.882812 "/>
<path style=" stroke:none;fill-rule:nonzero;fill:rgb(100%,100%,100%);fill-opacity:1;" d="M 13.472656 11.882812 L 10.417969 11.882812 L 11.660156 9.761719 L 13.882812 9.761719 Z M 13.472656 11.882812 "/>
<path style=" stroke:none;fill-rule:nonzero;fill:rgb(90.196078%,91.372549%,93.333333%);fill-opacity:1;" d="M 25.605469 13.40625 L 25.605469 11.859375 L 22.554688 11.859375 L 22.554688 13.40625 C 22.554688 13.816406 22.839844 14.152344 23.199219 14.152344 L 24.960938 14.152344 C 25.320312 14.152344 25.605469 13.816406 25.605469 13.40625 Z M 25.605469 13.40625 "/>
<path style=" stroke:none;fill-rule:nonzero;fill:rgb(90.196078%,91.372549%,93.333333%);fill-opacity:1;" d="M 7.382812 13.40625 L 7.382812 11.859375 L 4.335938 11.859375 L 4.335938 13.40625 C 4.335938 13.816406 4.621094 14.152344 4.976562 14.152344 L 6.742188 14.152344 C 7.097656 14.152344 7.382812 13.816406 7.382812 13.40625 Z M 7.382812 13.40625 "/>
<path style=" stroke:none;fill-rule:nonzero;fill:rgb(32.941176%,75.294118%,92.156863%);fill-opacity:1;" d="M 22.566406 13.40625 L 22.566406 11.859375 L 19.519531 11.859375 L 19.519531 13.40625 C 19.519531 13.816406 19.804688 14.152344 20.164062 14.152344 L 21.925781 14.152344 C 22.28125 14.152344 22.566406 13.816406 22.566406 13.40625 Z M 22.566406 13.40625 "/>
<path style=" stroke:none;fill-rule:nonzero;fill:rgb(90.196078%,91.372549%,93.333333%);fill-opacity:1;" d="M 19.53125 13.40625 L 19.53125 11.859375 L 16.484375 11.859375 L 16.484375 13.40625 C 16.484375 13.816406 16.769531 14.152344 17.125 14.152344 L 18.890625 14.152344 C 19.246094 14.152344 19.53125 13.816406 19.53125 13.40625 Z M 19.53125 13.40625 "/>
<path style=" stroke:none;fill-rule:nonzero;fill:rgb(32.941176%,75.294118%,92.156863%);fill-opacity:1;" d="M 16.496094 13.40625 L 16.496094 11.859375 L 13.449219 11.859375 L 13.449219 13.40625 C 13.449219 13.816406 13.734375 14.152344 14.089844 14.152344 L 15.855469 14.152344 C 16.207031 14.152344 16.496094 13.816406 16.496094 13.40625 Z M 16.496094 13.40625 "/>
<path style=" stroke:none;fill-rule:nonzero;fill:rgb(32.941176%,75.294118%,92.156863%);fill-opacity:1;" d="M 10.417969 13.40625 L 10.417969 11.859375 L 7.371094 11.859375 L 7.371094 13.40625 C 7.371094 13.816406 7.65625 14.152344 8.015625 14.152344 L 9.777344 14.152344 C 10.132812 14.152344 10.417969 13.816406 10.417969 13.40625 Z M 10.417969 13.40625 "/>
<path style=" stroke:none;fill-rule:nonzero;fill:rgb(90.196078%,91.372549%,93.333333%);fill-opacity:1;" d="M 13.460938 13.40625 L 13.460938 11.859375 L 10.414062 11.859375 L 10.414062 13.40625 C 10.414062 13.816406 10.699219 14.152344 11.054688 14.152344 L 12.820312 14.152344 C 13.171875 14.152344 13.460938 13.816406 13.460938 13.40625 Z M 13.460938 13.40625 "/>
<path style=" stroke:none;fill-rule:nonzero;fill:rgb(97.647059%,70.980392%,29.803922%);fill-opacity:1;" d="M 7.257812 15.433594 L 17.421875 15.433594 L 17.421875 20.929688 L 7.257812 20.929688 Z M 7.257812 15.433594 "/>
<path style=" stroke:none;fill-rule:nonzero;fill:rgb(100%,100%,100%);fill-opacity:1;" d="M 7.71875 15.890625 L 16.972656 15.890625 L 16.972656 20.472656 L 7.71875 20.472656 Z M 7.71875 15.890625 "/>
<path style=" stroke:none;fill-rule:nonzero;fill:rgb(97.647059%,70.980392%,29.803922%);fill-opacity:1;" d="M 18.308594 15.433594 L 22.457031 15.433594 L 22.457031 22.140625 L 18.308594 22.140625 Z M 18.308594 15.433594 "/>
<path style=" stroke:none;fill-rule:nonzero;fill:rgb(100%,100%,100%);fill-opacity:1;" d="M 18.765625 15.890625 L 22.003906 15.890625 L 22.003906 18.664062 L 18.765625 18.664062 Z M 18.765625 15.890625 "/>
<path style=" stroke:none;fill-rule:nonzero;fill:rgb(100%,100%,100%);fill-opacity:1;" d="M 19.222656 6.105469 C 19.222656 4.824219 17.320312 3.785156 14.96875 3.785156 C 12.621094 3.785156 10.71875 4.824219 10.71875 6.105469 C 10.71875 7.390625 12.621094 8.429688 14.96875 8.429688 C 17.320312 8.429688 19.222656 7.390625 19.222656 6.105469 Z M 19.222656 6.105469 "/>
<path style=" stroke:none;fill-rule:nonzero;fill:rgb(29.803922%,85.882353%,76.862745%);fill-opacity:1;" d="M 12.402344 5.746094 C 12.378906 5.769531 12.363281 5.792969 12.363281 5.832031 C 12.363281 5.871094 12.378906 5.898438 12.410156 5.917969 C 12.441406 5.941406 12.515625 5.964844 12.636719 5.992188 C 12.753906 6.023438 12.84375 6.066406 12.910156 6.125 C 12.972656 6.183594 13.003906 6.265625 13.003906 6.375 C 13.003906 6.488281 12.960938 6.578125 12.878906 6.640625 C 12.796875 6.710938 12.6875 6.742188 12.550781 6.742188 C 12.355469 6.742188 12.183594 6.671875 12.023438 6.527344 L 12.191406 6.328125 C 12.320312 6.445312 12.445312 6.5 12.558594 6.5 C 12.613281 6.5 12.648438 6.488281 12.675781 6.46875 C 12.707031 6.445312 12.71875 6.414062 12.71875 6.378906 C 12.71875 6.34375 12.699219 6.316406 12.671875 6.292969 C 12.640625 6.265625 12.582031 6.25 12.488281 6.226562 C 12.34375 6.191406 12.238281 6.148438 12.171875 6.09375 C 12.105469 6.042969 12.070312 5.953125 12.070312 5.839844 C 12.070312 5.722656 12.113281 5.632812 12.195312 5.566406 C 12.277344 5.5 12.386719 5.472656 12.511719 5.472656 C 12.59375 5.472656 12.675781 5.484375 12.761719 5.511719 C 12.84375 5.542969 12.914062 5.578125 12.972656 5.632812 L 12.835938 5.832031 C 12.730469 5.75 12.617188 5.714844 12.503906 5.714844 C 12.46875 5.707031 12.433594 5.722656 12.402344 5.746094 Z M 12.402344 5.746094 "/>
<path style=" stroke:none;fill-rule:nonzero;fill:rgb(29.803922%,85.882353%,76.862745%);fill-opacity:1;" d="M 13.753906 5.738281 L 13.753906 6.730469 L 13.480469 6.730469 L 13.480469 5.738281 L 13.128906 5.738281 L 13.128906 5.5 L 14.101562 5.5 L 14.101562 5.738281 C 14.101562 5.738281 13.753906 5.738281 13.753906 5.738281 Z M 13.753906 5.738281 "/>
<path style=" stroke:none;fill-rule:nonzero;fill:rgb(29.803922%,85.882353%,76.862745%);fill-opacity:1;" d="M 15.304688 6.558594 C 15.179688 6.675781 15.023438 6.742188 14.84375 6.742188 C 14.660156 6.742188 14.511719 6.683594 14.386719 6.558594 C 14.261719 6.433594 14.203125 6.285156 14.203125 6.105469 C 14.203125 5.929688 14.261719 5.773438 14.386719 5.65625 C 14.511719 5.535156 14.667969 5.472656 14.84375 5.472656 C 15.03125 5.472656 15.179688 5.53125 15.304688 5.65625 C 15.425781 5.773438 15.488281 5.929688 15.488281 6.105469 C 15.492188 6.285156 15.425781 6.441406 15.304688 6.558594 Z M 15.214844 6.105469 C 15.214844 5.992188 15.179688 5.90625 15.105469 5.828125 C 15.035156 5.75 14.953125 5.707031 14.84375 5.707031 C 14.746094 5.707031 14.65625 5.75 14.585938 5.828125 C 14.511719 5.90625 14.476562 6 14.476562 6.105469 C 14.476562 6.214844 14.511719 6.308594 14.585938 6.386719 C 14.65625 6.464844 14.738281 6.5 14.84375 6.5 C 14.945312 6.5 15.035156 6.464844 15.105469 6.386719 C 15.179688 6.308594 15.214844 6.21875 15.214844 6.105469 Z M 15.214844 6.105469 "/>
<path style=" stroke:none;fill-rule:nonzero;fill:rgb(29.803922%,85.882353%,76.862745%);fill-opacity:1;" d="M 16.722656 5.90625 C 16.722656 6.101562 16.644531 6.230469 16.492188 6.285156 L 16.804688 6.726562 L 16.46875 6.726562 L 16.195312 6.332031 L 16.003906 6.332031 L 16.003906 6.726562 L 15.730469 6.726562 L 15.730469 5.5 L 16.199219 5.5 C 16.390625 5.5 16.527344 5.53125 16.609375 5.597656 C 16.679688 5.660156 16.722656 5.761719 16.722656 5.90625 Z M 16.390625 6.054688 C 16.425781 6.023438 16.445312 5.976562 16.445312 5.910156 C 16.445312 5.84375 16.425781 5.796875 16.390625 5.773438 C 16.355469 5.75 16.296875 5.738281 16.207031 5.738281 L 15.996094 5.738281 L 15.996094 6.101562 L 16.199219 6.101562 C 16.296875 6.101562 16.359375 6.082031 16.390625 6.054688 Z M 16.390625 6.054688 "/>
<path style=" stroke:none;fill-rule:nonzero;fill:rgb(29.803922%,85.882353%,76.862745%);fill-opacity:1;" d="M 17.894531 5.5 L 17.894531 5.746094 L 17.28125 5.746094 L 17.28125 6 L 17.832031 6 L 17.832031 6.230469 L 17.28125 6.230469 L 17.28125 6.488281 L 17.910156 6.488281 L 17.910156 6.730469 L 17.003906 6.730469 L 17.003906 5.5 Z M 17.894531 5.5 "/>
</g>
</svg>
