<?xml version="1.0" encoding="UTF-8"?>
<svg xmlns="http://www.w3.org/2000/svg" xmlns:xlink="http://www.w3.org/1999/xlink" width="30px" height="30px" viewBox="0 0 30 30" version="1.1">
<g id="surface1">
<path style=" stroke:none;fill-rule:nonzero;fill:rgb(100%,43.529412%,0%);fill-opacity:1;" d="M 30 15 C 30 23.285156 23.285156 30 15 30 C 6.714844 30 0 23.285156 0 15 C 0 6.714844 6.714844 0 15 0 C 23.285156 0 30 6.714844 30 15 Z M 30 15 "/>
<path style=" stroke:none;fill-rule:evenodd;fill:rgb(98.823529%,81.176471%,30.588235%);fill-opacity:1;" d="M 6.84375 10.023438 L 23.125 10.023438 L 23.125 19.800781 L 6.84375 19.800781 Z M 6.84375 10.023438 "/>
<path style=" stroke:none;fill-rule:evenodd;fill:rgb(98.823529%,67.45098%,22.352941%);fill-opacity:1;" d="M 7.90625 11.203125 L 22.011719 11.203125 L 22.011719 18.617188 L 7.90625 18.617188 Z M 7.90625 11.203125 "/>
<path style=" stroke:none;fill-rule:evenodd;fill:rgb(98.431373%,76.470588%,21.960784%);fill-opacity:1;" d="M 6.84375 10.023438 L 14.992188 10.023438 L 14.992188 19.800781 L 6.84375 19.800781 Z M 6.84375 10.023438 "/>
<path style=" stroke:none;fill-rule:evenodd;fill:rgb(98.431373%,60.392157%,14.509804%);fill-opacity:1;" d="M 7.90625 11.203125 L 14.992188 11.203125 L 14.992188 18.617188 L 7.90625 18.617188 Z M 7.90625 11.203125 "/>
<path style=" stroke:none;fill-rule:evenodd;fill:rgb(98.823529%,81.176471%,30.588235%);fill-opacity:1;" d="M 17.425781 14.910156 C 17.425781 16.273438 16.320312 17.375 14.960938 17.375 C 13.597656 17.375 12.496094 16.273438 12.496094 14.910156 C 12.496094 13.550781 13.597656 12.445312 14.960938 12.445312 C 16.320312 12.445312 17.425781 13.550781 17.425781 14.910156 Z M 17.425781 14.910156 "/>
<path style=" stroke:none;fill-rule:evenodd;fill:rgb(98.823529%,85.490196%,30.588235%);fill-opacity:1;" d="M 14.976562 12.449219 L 14.976562 17.375 C 16.332031 17.363281 17.425781 16.265625 17.425781 14.910156 C 17.425781 13.554688 16.332031 12.457031 14.976562 12.449219 Z M 14.976562 12.449219 "/>
<path style=" stroke:none;fill-rule:nonzero;fill:rgb(100%,43.529412%,0%);fill-opacity:1;" d="M 16.101562 15.511719 C 16.101562 15.738281 16.019531 15.921875 15.855469 16.058594 C 15.691406 16.195312 15.460938 16.277344 15.167969 16.304688 L 15.167969 16.746094 L 14.871094 16.746094 L 14.871094 16.316406 C 14.523438 16.308594 14.21875 16.246094 13.957031 16.128906 L 13.957031 15.566406 C 14.078125 15.625 14.230469 15.679688 14.40625 15.726562 C 14.578125 15.773438 14.734375 15.800781 14.871094 15.8125 L 14.871094 15.148438 L 14.730469 15.089844 C 14.445312 14.980469 14.246094 14.859375 14.128906 14.726562 C 14.011719 14.597656 13.953125 14.4375 13.953125 14.242188 C 13.953125 14.035156 14.03125 13.867188 14.195312 13.730469 C 14.355469 13.597656 14.582031 13.515625 14.871094 13.488281 L 14.871094 13.160156 L 15.167969 13.160156 L 15.167969 13.480469 C 15.492188 13.496094 15.789062 13.558594 16.054688 13.675781 L 15.851562 14.179688 C 15.628906 14.085938 15.402344 14.03125 15.167969 14.011719 L 15.167969 14.644531 C 15.445312 14.75 15.644531 14.84375 15.761719 14.921875 C 15.878906 15 15.964844 15.085938 16.019531 15.179688 C 16.074219 15.277344 16.101562 15.386719 16.101562 15.511719 Z M 14.597656 14.242188 C 14.597656 14.304688 14.617188 14.359375 14.660156 14.398438 C 14.707031 14.4375 14.777344 14.480469 14.871094 14.523438 L 14.871094 14.019531 C 14.6875 14.046875 14.597656 14.121094 14.597656 14.242188 Z M 15.457031 15.542969 C 15.457031 15.484375 15.433594 15.433594 15.386719 15.390625 C 15.335938 15.351562 15.261719 15.308594 15.167969 15.261719 L 15.167969 15.796875 C 15.359375 15.761719 15.457031 15.679688 15.457031 15.542969 Z M 15.457031 15.542969 "/>
</g>
</svg>
