<?xml version="1.0" encoding="iso-8859-1"?>
<!-- Generator: Adobe Illustrator 19.0.0, SVG Export Plug-In . SVG Version: 6.00 Build 0)  -->
<svg version="1.1" id="Layer_1" xmlns="http://www.w3.org/2000/svg" xmlns:xlink="http://www.w3.org/1999/xlink" x="0px" y="0px"
	 viewBox="0 0 496.159 496.159" style="enable-background:new 0 0 496.159 496.159;" xml:space="preserve">
<path style="fill:#D61E1E;" d="M248.083,0.003C111.071,0.003,0,111.063,0,248.085c0,137.001,111.07,248.07,248.083,248.07
	c137.006,0,248.076-111.069,248.076-248.07C496.159,111.062,385.089,0.003,248.083,0.003z"/>
<path style="fill:#F4EDED;" d="M248.082,39.002C132.609,39.002,39,132.602,39,248.084c0,115.463,93.609,209.072,209.082,209.072
	c115.468,0,209.077-93.609,209.077-209.072C457.159,132.602,363.55,39.002,248.082,39.002z"/>
<g>
	<path style="fill:#5B5147;" d="M294.181,102.063c0.006-4.324-3.501-7.829-7.826-7.829c-4.317,0-7.825,3.499-7.825,7.829v67.811
		c0,4.33,3.508,7.829,7.825,7.829c4.325-0.006,7.832-3.505,7.832-7.829L294.181,102.063z"/>
	<path style="fill:#5B5147;" d="M359.759,136.846c-3.052-3.058-8.012-3.058-11.07,0l-47.949,47.952
		c-3.058,3.058-3.051,8.013,0,11.07c3.062,3.052,8.01,3.052,11.071,0l47.948-47.958
		C362.816,144.859,362.823,139.905,359.759,136.846z"/>
	<path style="fill:#5B5147;" d="M393.046,200.92H325.23c-4.324,0-7.826,3.511-7.826,7.829c0,4.324,3.505,7.822,7.826,7.822h67.816
		c4.321,0,7.826-3.498,7.826-7.822C400.875,204.431,397.367,200.92,393.046,200.92z"/>
	<path style="fill:#5B5147;" d="M338.544,272.131L223.021,156.614c-7.357-7.37-19.309-7.357-26.66,0.007
		c-5.995,5.992-7.106,15.012-3.346,22.13l-64.571,127.797c-0.151,0.15-0.285,0.313-0.425,0.47c-0.159,0.142-0.322,0.276-0.474,0.428
		l-28.967,28.966c-4.385,4.392-4.385,11.505,0,15.89l46.334,46.337c4.385,4.379,11.501,4.379,15.887,0l28.966-28.972
		c0.144-0.144,0.269-0.297,0.403-0.445c0.167-0.148,0.337-0.289,0.496-0.448l8.778-4.436c2.421,4.036,5.363,7.844,8.84,11.323
		c22.908,22.912,60.052,22.912,82.96,0c17.329-17.332,21.539-42.801,12.65-64.098l15.903-8.036
		c6.422,1.921,13.668,0.353,18.75-4.723C345.906,291.453,345.906,279.496,338.544,272.131z M274.645,359.067
		c-13.743,13.743-36.024,13.75-49.774,0c-1.669-1.668-3.131-3.465-4.395-5.357l62.377-31.517
		C287.351,334.632,284.62,349.097,274.645,359.067z"/>
</g>
<path style="fill:#D61E1E;" d="M85.851,60.394c-9.086,7.86-17.596,16.37-25.457,25.456l349.914,349.914
	c9.086-7.861,17.596-16.37,25.456-25.456L85.851,60.394z"/>
<g>
</g>
<g>
</g>
<g>
</g>
<g>
</g>
<g>
</g>
<g>
</g>
<g>
</g>
<g>
</g>
<g>
</g>
<g>
</g>
<g>
</g>
<g>
</g>
<g>
</g>
<g>
</g>
<g>
</g>
</svg>
