<?xml version="1.0" encoding="UTF-8"?>
<svg xmlns="http://www.w3.org/2000/svg" xmlns:xlink="http://www.w3.org/1999/xlink" width="30px" height="30px" viewBox="0 0 30 30" version="1.1">
<g id="surface1">
<path style=" stroke:none;fill-rule:nonzero;fill:rgb(83.921569%,11.764706%,11.764706%);fill-opacity:1;" d="M 15 0 C 6.714844 0 0 6.714844 0 15 C 0 23.285156 6.714844 30 15 30 C 23.285156 30 30 23.285156 30 15 C 30 6.714844 23.285156 0 15 0 Z M 15 0 "/>
<path style=" stroke:none;fill-rule:nonzero;fill:rgb(95.686275%,92.941176%,92.941176%);fill-opacity:1;" d="M 15 2.359375 C 8.019531 2.359375 2.359375 8.019531 2.359375 15 C 2.359375 21.980469 8.019531 27.640625 15 27.640625 C 21.980469 27.640625 27.640625 21.980469 27.640625 15 C 27.640625 8.019531 21.980469 2.359375 15 2.359375 Z M 15 2.359375 "/>
<path style=" stroke:none;fill-rule:nonzero;fill:rgb(35.686275%,31.764706%,27.843137%);fill-opacity:1;" d="M 17.789062 6.171875 C 17.789062 5.910156 17.574219 5.699219 17.3125 5.699219 C 17.054688 5.699219 16.839844 5.910156 16.839844 6.171875 L 16.839844 10.269531 C 16.839844 10.53125 17.054688 10.746094 17.3125 10.746094 C 17.574219 10.746094 17.789062 10.53125 17.789062 10.269531 Z M 17.789062 6.171875 "/>
<path style=" stroke:none;fill-rule:nonzero;fill:rgb(35.686275%,31.764706%,27.843137%);fill-opacity:1;" d="M 21.753906 8.273438 C 21.566406 8.089844 21.269531 8.089844 21.082031 8.273438 L 18.183594 11.171875 C 18 11.359375 18 11.660156 18.183594 11.84375 C 18.371094 12.027344 18.667969 12.027344 18.851562 11.84375 L 21.753906 8.941406 C 21.9375 8.757812 21.9375 8.460938 21.753906 8.273438 Z M 21.753906 8.273438 "/>
<path style=" stroke:none;fill-rule:nonzero;fill:rgb(35.686275%,31.764706%,27.843137%);fill-opacity:1;" d="M 23.765625 12.148438 L 19.664062 12.148438 C 19.402344 12.148438 19.191406 12.359375 19.191406 12.621094 C 19.191406 12.882812 19.402344 13.09375 19.664062 13.09375 L 23.765625 13.09375 C 24.027344 13.09375 24.238281 12.882812 24.238281 12.621094 C 24.238281 12.359375 24.027344 12.148438 23.765625 12.148438 Z M 23.765625 12.148438 "/>
<path style=" stroke:none;fill-rule:nonzero;fill:rgb(35.686275%,31.764706%,27.843137%);fill-opacity:1;" d="M 20.46875 16.453125 L 13.484375 9.46875 C 13.039062 9.023438 12.316406 9.023438 11.871094 9.46875 C 11.511719 9.832031 11.441406 10.378906 11.671875 10.808594 L 7.765625 18.535156 C 7.757812 18.542969 7.75 18.554688 7.742188 18.5625 C 7.730469 18.574219 7.722656 18.582031 7.710938 18.589844 L 5.960938 20.339844 C 5.695312 20.605469 5.695312 21.035156 5.960938 21.300781 L 8.761719 24.101562 C 9.027344 24.367188 9.457031 24.367188 9.722656 24.101562 L 11.472656 22.351562 C 11.484375 22.34375 11.492188 22.332031 11.5 22.324219 C 11.507812 22.316406 11.519531 22.308594 11.527344 22.296875 L 12.058594 22.03125 C 12.207031 22.273438 12.382812 22.503906 12.59375 22.714844 C 13.980469 24.097656 16.226562 24.097656 17.609375 22.714844 C 18.65625 21.667969 18.914062 20.125 18.375 18.839844 L 19.335938 18.351562 C 19.722656 18.46875 20.164062 18.375 20.46875 18.066406 C 20.914062 17.621094 20.914062 16.898438 20.46875 16.453125 Z M 16.605469 21.710938 C 15.773438 22.542969 14.429688 22.542969 13.597656 21.710938 C 13.496094 21.609375 13.40625 21.5 13.332031 21.386719 L 17.101562 19.480469 C 17.375 20.234375 17.210938 21.109375 16.605469 21.710938 Z M 16.605469 21.710938 "/>
<path style=" stroke:none;fill-rule:nonzero;fill:rgb(83.921569%,11.764706%,11.764706%);fill-opacity:1;" d="M 5.191406 3.652344 C 4.640625 4.125 4.128906 4.640625 3.652344 5.191406 L 24.808594 26.347656 C 25.359375 25.871094 25.871094 25.359375 26.347656 24.808594 Z M 5.191406 3.652344 "/>
</g>
</svg>
