<?xml version="1.0" encoding="UTF-8"?>
<svg xmlns="http://www.w3.org/2000/svg" xmlns:xlink="http://www.w3.org/1999/xlink" width="30px" height="30px" viewBox="0 0 30 30" version="1.1">
<defs>
<clipPath id="clip1">
  <path d="M 29.992188 15 C 29.992188 6.714844 23.28125 0 15 0 C 6.71875 0 0.0078125 6.714844 0.0078125 15 C 0.0078125 23.285156 6.71875 30 15 30 C 23.28125 30 29.992188 23.285156 29.992188 15 Z M 29.992188 15 "/>
</clipPath>
<clipPath id="clip2">
  <path d="M 8 11 L 11 11 L 11 14 L 8 14 Z M 8 11 "/>
</clipPath>
<clipPath id="clip3">
  <path d="M 29.992188 15 C 29.992188 6.714844 23.28125 0 15 0 C 6.71875 0 0.0078125 6.714844 0.0078125 15 C 0.0078125 23.285156 6.71875 30 15 30 C 23.28125 30 29.992188 23.285156 29.992188 15 Z M 29.992188 15 "/>
</clipPath>
<clipPath id="clip4">
  <path d="M 19 11 L 22 11 L 22 14 L 19 14 Z M 19 11 "/>
</clipPath>
<clipPath id="clip5">
  <path d="M 29.992188 15 C 29.992188 6.714844 23.28125 0 15 0 C 6.71875 0 0.0078125 6.714844 0.0078125 15 C 0.0078125 23.285156 6.71875 30 15 30 C 23.28125 30 29.992188 23.285156 29.992188 15 Z M 29.992188 15 "/>
</clipPath>
<clipPath id="clip6">
  <path d="M 4 19 L 27 19 L 27 30 L 4 30 Z M 4 19 "/>
</clipPath>
<clipPath id="clip7">
  <path d="M 29.992188 15 C 29.992188 6.714844 23.28125 0 15 0 C 6.71875 0 0.0078125 6.714844 0.0078125 15 C 0.0078125 23.285156 6.71875 30 15 30 C 23.28125 30 29.992188 23.285156 29.992188 15 Z M 29.992188 15 "/>
</clipPath>
<clipPath id="clip8">
  <path d="M 3 19 L 27 19 L 27 30 L 3 30 Z M 3 19 "/>
</clipPath>
<clipPath id="clip9">
  <path d="M 29.992188 15 C 29.992188 6.714844 23.28125 0 15 0 C 6.71875 0 0.0078125 6.714844 0.0078125 15 C 0.0078125 23.285156 6.71875 30 15 30 C 23.28125 30 29.992188 23.285156 29.992188 15 Z M 29.992188 15 "/>
</clipPath>
<clipPath id="clip10">
  <path d="M 12 13 L 18 13 L 18 23 L 12 23 Z M 12 13 "/>
</clipPath>
<clipPath id="clip11">
  <path d="M 29.992188 15 C 29.992188 6.714844 23.28125 0 15 0 C 6.71875 0 0.0078125 6.714844 0.0078125 15 C 0.0078125 23.285156 6.71875 30 15 30 C 23.28125 30 29.992188 23.285156 29.992188 15 Z M 29.992188 15 "/>
</clipPath>
<clipPath id="clip12">
  <path d="M 9 6 L 21 6 L 21 20 L 9 20 Z M 9 6 "/>
</clipPath>
<clipPath id="clip13">
  <path d="M 29.992188 15 C 29.992188 6.714844 23.28125 0 15 0 C 6.71875 0 0.0078125 6.714844 0.0078125 15 C 0.0078125 23.285156 6.71875 30 15 30 C 23.28125 30 29.992188 23.285156 29.992188 15 Z M 29.992188 15 "/>
</clipPath>
<clipPath id="clip14">
  <path d="M 10 19 L 16 19 L 16 25 L 10 25 Z M 10 19 "/>
</clipPath>
<clipPath id="clip15">
  <path d="M 29.992188 15 C 29.992188 6.714844 23.28125 0 15 0 C 6.71875 0 0.0078125 6.714844 0.0078125 15 C 0.0078125 23.285156 6.71875 30 15 30 C 23.28125 30 29.992188 23.285156 29.992188 15 Z M 29.992188 15 "/>
</clipPath>
<clipPath id="clip16">
  <path d="M 5 14 L 20 14 L 20 29 L 5 29 Z M 5 14 "/>
</clipPath>
<clipPath id="clip17">
  <path d="M 29.992188 15 C 29.992188 6.714844 23.28125 0 15 0 C 6.71875 0 0.0078125 6.714844 0.0078125 15 C 0.0078125 23.285156 6.71875 30 15 30 C 23.28125 30 29.992188 23.285156 29.992188 15 Z M 29.992188 15 "/>
</clipPath>
<clipPath id="clip18">
  <path d="M 15 19 L 20 19 L 20 25 L 15 25 Z M 15 19 "/>
</clipPath>
<clipPath id="clip19">
  <path d="M 29.992188 15 C 29.992188 6.714844 23.28125 0 15 0 C 6.71875 0 0.0078125 6.714844 0.0078125 15 C 0.0078125 23.285156 6.71875 30 15 30 C 23.28125 30 29.992188 23.285156 29.992188 15 Z M 29.992188 15 "/>
</clipPath>
<clipPath id="clip20">
  <path d="M 10 14 L 25 14 L 25 29 L 10 29 Z M 10 14 "/>
</clipPath>
<clipPath id="clip21">
  <path d="M 29.992188 15 C 29.992188 6.714844 23.28125 0 15 0 C 6.71875 0 0.0078125 6.714844 0.0078125 15 C 0.0078125 23.285156 6.71875 30 15 30 C 23.28125 30 29.992188 23.285156 29.992188 15 Z M 29.992188 15 "/>
</clipPath>
<clipPath id="clip22">
  <path d="M 11 12 L 14 12 L 14 14 L 11 14 Z M 11 12 "/>
</clipPath>
<clipPath id="clip23">
  <path d="M 29.992188 15 C 29.992188 6.714844 23.28125 0 15 0 C 6.71875 0 0.0078125 6.714844 0.0078125 15 C 0.0078125 23.285156 6.71875 30 15 30 C 23.28125 30 29.992188 23.285156 29.992188 15 Z M 29.992188 15 "/>
</clipPath>
<clipPath id="clip24">
  <path d="M 12 12 L 14 12 L 14 14 L 12 14 Z M 12 12 "/>
</clipPath>
<clipPath id="clip25">
  <path d="M 29.992188 15 C 29.992188 6.714844 23.28125 0 15 0 C 6.71875 0 0.0078125 6.714844 0.0078125 15 C 0.0078125 23.285156 6.71875 30 15 30 C 23.28125 30 29.992188 23.285156 29.992188 15 Z M 29.992188 15 "/>
</clipPath>
<radialGradient id="radial0" gradientUnits="userSpaceOnUse" cx="74.6897" cy="76.4121" fx="74.6897" fy="76.4121" r="2.6149" gradientTransform="matrix(0.172414,0,0,0.172414,0,0)">
<stop offset="0" style="stop-color:rgb(38.431373%,29.019608%,18.039216%);stop-opacity:1;"/>
<stop offset="0.036" style="stop-color:rgb(42.745098%,33.72549%,20%);stop-opacity:1;"/>
<stop offset="0.1218" style="stop-color:rgb(50.588235%,41.960784%,23.921569%);stop-opacity:1;"/>
<stop offset="0.2231" style="stop-color:rgb(56.470588%,48.627451%,27.058824%);stop-opacity:1;"/>
<stop offset="0.348" style="stop-color:rgb(60.784314%,53.333333%,29.019608%);stop-opacity:1;"/>
<stop offset="0.5227" style="stop-color:rgb(63.137255%,56.078431%,30.196078%);stop-opacity:1;"/>
<stop offset="1" style="stop-color:rgb(63.921569%,56.862745%,30.588235%);stop-opacity:1;"/>
</radialGradient>
<clipPath id="clip26">
  <path d="M 16 12 L 19 12 L 19 14 L 16 14 Z M 16 12 "/>
</clipPath>
<clipPath id="clip27">
  <path d="M 29.992188 15 C 29.992188 6.714844 23.28125 0 15 0 C 6.71875 0 0.0078125 6.714844 0.0078125 15 C 0.0078125 23.285156 6.71875 30 15 30 C 23.28125 30 29.992188 23.285156 29.992188 15 Z M 29.992188 15 "/>
</clipPath>
<clipPath id="clip28">
  <path d="M 16 12 L 18 12 L 18 14 L 16 14 Z M 16 12 "/>
</clipPath>
<clipPath id="clip29">
  <path d="M 29.992188 15 C 29.992188 6.714844 23.28125 0 15 0 C 6.71875 0 0.0078125 6.714844 0.0078125 15 C 0.0078125 23.285156 6.71875 30 15 30 C 23.28125 30 29.992188 23.285156 29.992188 15 Z M 29.992188 15 "/>
</clipPath>
<radialGradient id="radial1" gradientUnits="userSpaceOnUse" cx="-8.3842" cy="76.4121" fx="-8.3842" fy="76.4121" r="2.6152" gradientTransform="matrix(-0.172414,0,0,0.172414,15.836655,0)">
<stop offset="0" style="stop-color:rgb(38.431373%,29.019608%,18.039216%);stop-opacity:1;"/>
<stop offset="0.036" style="stop-color:rgb(42.745098%,33.72549%,20%);stop-opacity:1;"/>
<stop offset="0.1218" style="stop-color:rgb(50.588235%,41.960784%,23.921569%);stop-opacity:1;"/>
<stop offset="0.2231" style="stop-color:rgb(56.470588%,48.627451%,27.058824%);stop-opacity:1;"/>
<stop offset="0.348" style="stop-color:rgb(60.784314%,53.333333%,29.019608%);stop-opacity:1;"/>
<stop offset="0.5227" style="stop-color:rgb(63.137255%,56.078431%,30.196078%);stop-opacity:1;"/>
<stop offset="1" style="stop-color:rgb(63.921569%,56.862745%,30.588235%);stop-opacity:1;"/>
</radialGradient>
<clipPath id="clip30">
  <path d="M 17 12 L 18 12 L 18 14 L 17 14 Z M 17 12 "/>
</clipPath>
<clipPath id="clip31">
  <path d="M 29.992188 15 C 29.992188 6.714844 23.28125 0 15 0 C 6.71875 0 0.0078125 6.714844 0.0078125 15 C 0.0078125 23.285156 6.71875 30 15 30 C 23.28125 30 29.992188 23.285156 29.992188 15 Z M 29.992188 15 "/>
</clipPath>
<clipPath id="clip32">
  <path d="M 14 15 L 16 15 L 16 16 L 14 16 Z M 14 15 "/>
</clipPath>
<clipPath id="clip33">
  <path d="M 29.992188 15 C 29.992188 6.714844 23.28125 0 15 0 C 6.71875 0 0.0078125 6.714844 0.0078125 15 C 0.0078125 23.285156 6.71875 30 15 30 C 23.28125 30 29.992188 23.285156 29.992188 15 Z M 29.992188 15 "/>
</clipPath>
<clipPath id="clip34">
  <path d="M 13 17 L 17 17 L 17 18 L 13 18 Z M 13 17 "/>
</clipPath>
<clipPath id="clip35">
  <path d="M 29.992188 15 C 29.992188 6.714844 23.28125 0 15 0 C 6.71875 0 0.0078125 6.714844 0.0078125 15 C 0.0078125 23.285156 6.71875 30 15 30 C 23.28125 30 29.992188 23.285156 29.992188 15 Z M 29.992188 15 "/>
</clipPath>
<clipPath id="clip36">
  <path d="M 10 11 L 14 11 L 14 12 L 10 12 Z M 10 11 "/>
</clipPath>
<clipPath id="clip37">
  <path d="M 29.992188 15 C 29.992188 6.714844 23.28125 0 15 0 C 6.71875 0 0.0078125 6.714844 0.0078125 15 C 0.0078125 23.285156 6.71875 30 15 30 C 23.28125 30 29.992188 23.285156 29.992188 15 Z M 29.992188 15 "/>
</clipPath>
<clipPath id="clip38">
  <path d="M 16 11 L 20 11 L 20 12 L 16 12 Z M 16 11 "/>
</clipPath>
<clipPath id="clip39">
  <path d="M 29.992188 15 C 29.992188 6.714844 23.28125 0 15 0 C 6.71875 0 0.0078125 6.714844 0.0078125 15 C 0.0078125 23.285156 6.71875 30 15 30 C 23.28125 30 29.992188 23.285156 29.992188 15 Z M 29.992188 15 "/>
</clipPath>
<clipPath id="clip40">
  <path d="M 9 11 L 21 11 L 21 21 L 9 21 Z M 9 11 "/>
</clipPath>
<clipPath id="clip41">
  <path d="M 29.992188 15 C 29.992188 6.714844 23.28125 0 15 0 C 6.71875 0 0.0078125 6.714844 0.0078125 15 C 0.0078125 23.285156 6.71875 30 15 30 C 23.28125 30 29.992188 23.285156 29.992188 15 Z M 29.992188 15 "/>
</clipPath>
<clipPath id="clip42">
  <path d="M 9 5 L 21 5 L 21 12 L 9 12 Z M 9 5 "/>
</clipPath>
<clipPath id="clip43">
  <path d="M 29.992188 15 C 29.992188 6.714844 23.28125 0 15 0 C 6.71875 0 0.0078125 6.714844 0.0078125 15 C 0.0078125 23.285156 6.71875 30 15 30 C 23.28125 30 29.992188 23.285156 29.992188 15 Z M 29.992188 15 "/>
</clipPath>
<clipPath id="clip44">
  <path d="M 8 4 L 22 4 L 22 12 L 8 12 Z M 8 4 "/>
</clipPath>
<clipPath id="clip45">
  <path d="M 29.992188 15 C 29.992188 6.714844 23.28125 0 15 0 C 6.71875 0 0.0078125 6.714844 0.0078125 15 C 0.0078125 23.285156 6.71875 30 15 30 C 23.28125 30 29.992188 23.285156 29.992188 15 Z M 29.992188 15 "/>
</clipPath>
<clipPath id="clip46">
  <path d="M 9 11 L 11 11 L 11 14 L 9 14 Z M 9 11 "/>
</clipPath>
<clipPath id="clip47">
  <path d="M 29.992188 15 C 29.992188 6.714844 23.28125 0 15 0 C 6.71875 0 0.0078125 6.714844 0.0078125 15 C 0.0078125 23.285156 6.71875 30 15 30 C 23.28125 30 29.992188 23.285156 29.992188 15 Z M 29.992188 15 "/>
</clipPath>
<clipPath id="clip48">
  <path d="M 19 11 L 21 11 L 21 14 L 19 14 Z M 19 11 "/>
</clipPath>
<clipPath id="clip49">
  <path d="M 29.992188 15 C 29.992188 6.714844 23.28125 0 15 0 C 6.71875 0 0.0078125 6.714844 0.0078125 15 C 0.0078125 23.285156 6.71875 30 15 30 C 23.28125 30 29.992188 23.285156 29.992188 15 Z M 29.992188 15 "/>
</clipPath>
</defs>
<g id="surface1">
<g clip-path="url(#clip1)" clip-rule="nonzero">
<path style=" stroke:none;fill-rule:nonzero;fill:rgb(87.058824%,34.509804%,65.098039%);fill-opacity:1;" d="M 29.992188 15 C 29.992188 6.714844 23.28125 0 15 0 C 6.71875 0 0.0078125 6.714844 0.0078125 15 C 0.0078125 23.285156 6.71875 30 15 30 C 23.28125 30 29.992188 23.285156 29.992188 15 Z M 29.992188 15 "/>
</g>
<g clip-path="url(#clip2)" clip-rule="nonzero">
<g clip-path="url(#clip3)" clip-rule="nonzero">
<path style=" stroke:none;fill-rule:evenodd;fill:rgb(96.078431%,74.509804%,57.254902%);fill-opacity:1;" d="M 9.015625 11.234375 C 8.601562 11.371094 8.457031 12.0625 8.691406 12.78125 C 8.929688 13.5 9.457031 13.96875 9.871094 13.832031 C 10.285156 13.695312 10.429688 13.003906 10.195312 12.285156 C 9.960938 11.570312 9.429688 11.097656 9.015625 11.234375 Z M 9.015625 11.234375 "/>
</g>
</g>
<g clip-path="url(#clip4)" clip-rule="nonzero">
<g clip-path="url(#clip5)" clip-rule="nonzero">
<path style=" stroke:none;fill-rule:evenodd;fill:rgb(96.078431%,74.509804%,57.254902%);fill-opacity:1;" d="M 21.148438 11.234375 C 20.734375 11.097656 20.207031 11.570312 19.96875 12.285156 C 19.730469 13.003906 19.878906 13.695312 20.292969 13.832031 C 20.707031 13.96875 21.234375 13.5 21.472656 12.78125 C 21.707031 12.0625 21.5625 11.371094 21.148438 11.234375 Z M 21.148438 11.234375 "/>
</g>
</g>
<g clip-path="url(#clip6)" clip-rule="nonzero">
<g clip-path="url(#clip7)" clip-rule="nonzero">
<path style=" stroke:none;fill-rule:evenodd;fill:rgb(97.647059%,70.980392%,30.980392%);fill-opacity:1;" d="M 12.898438 19.898438 C 8.042969 22.027344 6.589844 23.160156 6.015625 23.667969 C 5.128906 24.453125 4.605469 27.480469 4.082031 29.964844 L 26.039062 29.964844 C 25.515625 27.480469 25.054688 24.453125 24.167969 23.667969 C 23.59375 23.160156 22.191406 22.054688 17.339844 19.929688 Z M 12.898438 19.898438 "/>
</g>
</g>
<g clip-path="url(#clip8)" clip-rule="nonzero">
<g clip-path="url(#clip9)" clip-rule="nonzero">
<path style="fill:none;stroke-width:1.0844;stroke-linecap:round;stroke-linejoin:round;stroke:rgb(97.647059%,70.980392%,30.980392%);stroke-opacity:1;stroke-miterlimit:10;" d="M 74.810937 115.410938 C 46.649219 127.758594 38.221094 134.328906 34.890625 137.274219 C 29.747656 141.828125 26.711719 159.386719 23.675781 173.796094 L 151.026562 173.796094 C 147.990625 159.386719 145.317187 141.828125 140.174219 137.274219 C 136.84375 134.328906 128.710156 127.917187 100.571094 115.592187 Z M 74.810937 115.410938 " transform="matrix(0.172414,0,0,0.172414,0,0)"/>
</g>
</g>
<g clip-path="url(#clip10)" clip-rule="nonzero">
<g clip-path="url(#clip11)" clip-rule="nonzero">
<path style=" stroke:none;fill-rule:evenodd;fill:rgb(96.078431%,74.509804%,57.254902%);fill-opacity:1;" d="M 12.734375 15.660156 L 12.734375 21.410156 C 14.03125 22.945312 16.152344 23 17.449219 21.410156 L 17.449219 15.660156 C 17.449219 12.753906 12.734375 12.753906 12.734375 15.660156 Z M 12.734375 15.660156 "/>
</g>
</g>
<g clip-path="url(#clip12)" clip-rule="nonzero">
<g clip-path="url(#clip13)" clip-rule="nonzero">
<path style=" stroke:none;fill-rule:evenodd;fill:rgb(96.078431%,74.509804%,57.254902%);fill-opacity:1;" d="M 15.09375 6.003906 C 7.183594 6.003906 10.027344 16.304688 10.542969 17.066406 C 11.113281 17.90625 13.8125 19.378906 15.09375 19.378906 C 16.371094 19.378906 19.070312 17.71875 19.640625 16.878906 C 20.15625 16.117188 23 6.003906 15.09375 6.003906 Z M 15.09375 6.003906 "/>
</g>
</g>
<g clip-path="url(#clip14)" clip-rule="nonzero">
<g clip-path="url(#clip15)" clip-rule="nonzero">
<path style=" stroke:none;fill-rule:evenodd;fill:rgb(100%,100%,100%);fill-opacity:1;" d="M 12.511719 19.84375 L 10.839844 20.746094 L 13.265625 24.105469 L 15.101562 22.359375 Z M 12.511719 19.84375 "/>
</g>
</g>
<g clip-path="url(#clip16)" clip-rule="nonzero">
<g clip-path="url(#clip17)" clip-rule="nonzero">
<path style="fill:none;stroke-width:2;stroke-linecap:round;stroke-linejoin:miter;stroke:rgb(100%,100%,100%);stroke-opacity:1;stroke-miterlimit:10;" d="M 72.567969 115.09375 L 62.871094 120.327344 L 76.940625 139.811719 L 87.589062 129.684375 Z M 72.567969 115.09375 " transform="matrix(0.172414,0,0,0.172414,0,0)"/>
</g>
</g>
<g clip-path="url(#clip18)" clip-rule="nonzero">
<g clip-path="url(#clip19)" clip-rule="nonzero">
<path style=" stroke:none;fill-rule:evenodd;fill:rgb(100%,100%,100%);fill-opacity:1;" d="M 17.691406 19.84375 L 19.363281 20.746094 L 16.941406 24.105469 L 15.101562 22.359375 Z M 17.691406 19.84375 "/>
</g>
</g>
<g clip-path="url(#clip20)" clip-rule="nonzero">
<g clip-path="url(#clip21)" clip-rule="nonzero">
<path style="fill:none;stroke-width:2;stroke-linecap:round;stroke-linejoin:miter;stroke:rgb(100%,100%,100%);stroke-opacity:1;stroke-miterlimit:10;" d="M 102.610156 115.09375 L 112.307031 120.327344 L 98.260156 139.811719 L 87.589062 129.684375 Z M 102.610156 115.09375 " transform="matrix(0.172414,0,0,0.172414,0,0)"/>
</g>
</g>
<g clip-path="url(#clip22)" clip-rule="nonzero">
<g clip-path="url(#clip23)" clip-rule="nonzero">
<path style=" stroke:none;fill-rule:nonzero;fill:rgb(100%,100%,100%);fill-opacity:1;" d="M 11.863281 13.25 C 11.863281 13.25 12.121094 13.683594 12.910156 13.683594 C 13.699219 13.683594 13.839844 13.3125 13.847656 13.179688 C 13.847656 13.179688 13.542969 12.667969 12.921875 12.667969 C 12.300781 12.667969 11.863281 13.25 11.863281 13.25 Z M 11.863281 13.25 "/>
</g>
</g>
<g clip-path="url(#clip24)" clip-rule="nonzero">
<g clip-path="url(#clip25)" clip-rule="nonzero">
<path style=" stroke:none;fill-rule:nonzero;fill:url(#radial0);" d="M 13.328125 13.175781 C 13.328125 13.421875 13.125 13.625 12.878906 13.625 C 12.628906 13.625 12.425781 13.421875 12.425781 13.175781 C 12.425781 12.925781 12.628906 12.722656 12.878906 12.722656 C 13.125 12.722656 13.328125 12.925781 13.328125 13.175781 Z M 13.328125 13.175781 "/>
<path style=" stroke:none;fill-rule:nonzero;fill:rgb(38.431373%,29.019608%,18.039216%);fill-opacity:1;" d="M 12.878906 12.769531 C 13.101562 12.769531 13.28125 12.949219 13.28125 13.175781 C 13.28125 13.398438 13.101562 13.578125 12.878906 13.578125 C 12.652344 13.578125 12.472656 13.398438 12.472656 13.175781 C 12.472656 12.949219 12.652344 12.769531 12.878906 12.769531 M 12.878906 12.679688 C 12.601562 12.679688 12.382812 12.902344 12.382812 13.175781 C 12.382812 13.449219 12.601562 13.671875 12.878906 13.671875 C 13.152344 13.671875 13.375 13.449219 13.375 13.175781 C 13.375 12.902344 13.152344 12.679688 12.878906 12.679688 Z M 12.878906 12.679688 "/>
<path style=" stroke:none;fill-rule:nonzero;fill:rgb(0%,0%,0%);fill-opacity:1;" d="M 13.085938 13.175781 C 13.085938 13.289062 12.992188 13.382812 12.878906 13.382812 C 12.761719 13.382812 12.671875 13.289062 12.671875 13.175781 C 12.671875 13.058594 12.761719 12.96875 12.878906 12.96875 C 12.992188 12.96875 13.085938 13.058594 13.085938 13.175781 Z M 13.085938 13.175781 "/>
</g>
</g>
<g clip-path="url(#clip26)" clip-rule="nonzero">
<g clip-path="url(#clip27)" clip-rule="nonzero">
<path style=" stroke:none;fill-rule:nonzero;fill:rgb(100%,100%,100%);fill-opacity:1;" d="M 18.296875 13.25 C 18.296875 13.25 18.039062 13.683594 17.25 13.683594 C 16.457031 13.683594 16.320312 13.3125 16.3125 13.179688 C 16.3125 13.179688 16.617188 12.667969 17.238281 12.667969 C 17.859375 12.667969 18.296875 13.25 18.296875 13.25 Z M 18.296875 13.25 "/>
</g>
</g>
<g clip-path="url(#clip28)" clip-rule="nonzero">
<g clip-path="url(#clip29)" clip-rule="nonzero">
<path style=" stroke:none;fill-rule:nonzero;fill:url(#radial1);" d="M 17.734375 13.175781 C 17.734375 13.421875 17.53125 13.625 17.28125 13.625 C 17.035156 13.625 16.832031 13.421875 16.832031 13.175781 C 16.832031 12.925781 17.035156 12.722656 17.28125 12.722656 C 17.53125 12.722656 17.734375 12.925781 17.734375 13.175781 Z M 17.734375 13.175781 "/>
<path style=" stroke:none;fill-rule:nonzero;fill:rgb(38.431373%,29.019608%,18.039216%);fill-opacity:1;" d="M 17.28125 12.769531 C 17.507812 12.769531 17.6875 12.949219 17.6875 13.175781 C 17.6875 13.398438 17.507812 13.578125 17.28125 13.578125 C 17.058594 13.578125 16.875 13.398438 16.875 13.175781 C 16.875 12.949219 17.058594 12.769531 17.28125 12.769531 M 17.28125 12.679688 C 17.007812 12.679688 16.785156 12.902344 16.785156 13.175781 C 16.785156 13.449219 17.007812 13.671875 17.28125 13.671875 C 17.554688 13.671875 17.777344 13.449219 17.777344 13.175781 C 17.777344 12.902344 17.554688 12.679688 17.28125 12.679688 Z M 17.28125 12.679688 "/>
</g>
</g>
<g clip-path="url(#clip30)" clip-rule="nonzero">
<g clip-path="url(#clip31)" clip-rule="nonzero">
<path style=" stroke:none;fill-rule:nonzero;fill:rgb(0%,0%,0%);fill-opacity:1;" d="M 17.488281 13.175781 C 17.488281 13.289062 17.398438 13.382812 17.28125 13.382812 C 17.167969 13.382812 17.074219 13.289062 17.074219 13.175781 C 17.074219 13.058594 17.167969 12.96875 17.28125 12.96875 C 17.398438 12.96875 17.488281 13.058594 17.488281 13.175781 Z M 17.488281 13.175781 "/>
</g>
</g>
<g clip-path="url(#clip32)" clip-rule="nonzero">
<g clip-path="url(#clip33)" clip-rule="nonzero">
<path style=" stroke:none;fill-rule:nonzero;fill:rgb(89.411765%,56.078431%,40.392157%);fill-opacity:1;" d="M 14.210938 15.328125 C 14.085938 15.402344 14.058594 15.53125 14.1875 15.621094 C 14.402344 15.777344 14.703125 15.789062 14.957031 15.789062 C 15.222656 15.789062 15.535156 15.765625 15.765625 15.621094 C 15.882812 15.546875 15.96875 15.308594 15.800781 15.234375 C 15.769531 15.222656 15.722656 15.238281 15.726562 15.277344 C 15.730469 15.335938 15.785156 15.386719 15.773438 15.4375 C 15.757812 15.507812 15.65625 15.546875 15.601562 15.566406 C 15.429688 15.632812 15.238281 15.644531 15.054688 15.648438 C 14.894531 15.652344 14.058594 15.664062 14.234375 15.351562 C 14.242188 15.335938 14.226562 15.320312 14.210938 15.328125 Z M 14.210938 15.328125 "/>
</g>
</g>
<g clip-path="url(#clip34)" clip-rule="nonzero">
<g clip-path="url(#clip35)" clip-rule="nonzero">
<path style=" stroke:none;fill-rule:evenodd;fill:rgb(100%,100%,100%);fill-opacity:1;" d="M 16.609375 17.222656 C 15.753906 17.734375 14.515625 17.902344 13.621094 17.347656 Z M 16.609375 17.222656 "/>
</g>
</g>
<g clip-path="url(#clip36)" clip-rule="nonzero">
<g clip-path="url(#clip37)" clip-rule="nonzero">
<path style=" stroke:none;fill-rule:nonzero;fill:rgb(27.843137%,27.843137%,28.235294%);fill-opacity:1;" d="M 10.976562 11.429688 C 11.953125 11.285156 12.890625 11.144531 13.796875 11.65625 C 13.882812 11.703125 13.957031 11.574219 13.875 11.519531 C 13.121094 11.054688 11.726562 10.863281 10.96875 11.40625 C 10.957031 11.414062 10.964844 11.429688 10.976562 11.429688 Z M 10.976562 11.429688 "/>
</g>
</g>
<g clip-path="url(#clip38)" clip-rule="nonzero">
<g clip-path="url(#clip39)" clip-rule="nonzero">
<path style=" stroke:none;fill-rule:nonzero;fill:rgb(27.843137%,27.843137%,28.235294%);fill-opacity:1;" d="M 19.15625 11.40625 C 18.394531 10.863281 17 11.054688 16.25 11.519531 C 16.164062 11.574219 16.242188 11.703125 16.328125 11.652344 C 17.234375 11.144531 18.171875 11.285156 19.144531 11.429688 C 19.160156 11.429688 19.167969 11.414062 19.15625 11.40625 Z M 19.15625 11.40625 "/>
</g>
</g>
<g clip-path="url(#clip40)" clip-rule="nonzero">
<g clip-path="url(#clip41)" clip-rule="nonzero">
<path style=" stroke:none;fill-rule:nonzero;fill:rgb(27.843137%,27.843137%,28.235294%);fill-opacity:1;" d="M 20.460938 14.28125 C 20.441406 14.257812 20.417969 14.242188 20.394531 14.230469 C 20.417969 14.101562 20.441406 13.976562 20.464844 13.847656 C 20.4375 13.84375 20.414062 13.84375 20.398438 13.84375 C 20.476562 13.5 20.445312 13.128906 20.472656 12.777344 C 20.511719 12.261719 20.675781 11.71875 20.617188 11.203125 C 20.605469 11.105469 20.484375 11.0625 20.425781 11.152344 C 20.195312 11.5 20.144531 11.964844 20.097656 12.371094 C 20.046875 12.820312 19.921875 13.390625 20.027344 13.851562 C 20.015625 13.855469 20.007812 13.863281 20 13.867188 C 20 13.871094 20 13.875 20 13.878906 C 20 14 19.964844 14.101562 19.902344 14.1875 C 19.871094 14.230469 19.839844 14.273438 19.8125 14.316406 C 19.585938 14.847656 19.152344 15.328125 18.734375 15.671875 C 18.707031 15.691406 18.679688 15.710938 18.652344 15.734375 C 18.328125 16.078125 17.902344 16.371094 17.429688 16.453125 C 17.316406 16.472656 17.203125 16.457031 17.113281 16.402344 C 17.101562 16.398438 17.089844 16.398438 17.078125 16.394531 C 17.070312 16.398438 17.066406 16.402344 17.0625 16.40625 C 15.996094 15.867188 14.207031 15.894531 13.167969 16.4375 C 13.105469 16.492188 13.035156 16.542969 12.960938 16.578125 C 12.898438 16.664062 12.800781 16.722656 12.667969 16.726562 C 12.109375 16.742188 11.683594 16.265625 11.375 15.859375 C 11.074219 15.460938 10.820312 15.027344 10.628906 14.570312 C 10.628906 14.566406 10.628906 14.566406 10.625 14.566406 C 10.613281 14.554688 10.601562 14.550781 10.585938 14.542969 C 10.589844 14.523438 10.59375 14.5 10.597656 14.476562 C 10.574219 14.402344 10.574219 14.332031 10.597656 14.273438 C 10.582031 14.105469 10.523438 13.941406 10.40625 13.84375 C 10.402344 13.84375 10.398438 13.84375 10.398438 13.839844 C 10.4375 13.441406 10.355469 13.03125 10.277344 12.640625 C 10.183594 12.144531 10.050781 11.570312 9.730469 11.167969 C 9.671875 11.09375 9.527344 11.152344 9.539062 11.246094 C 9.585938 11.691406 9.773438 12.117188 9.875 12.550781 C 9.96875 12.9375 9.976562 13.328125 10.015625 13.71875 C 9.988281 13.722656 9.957031 13.726562 9.929688 13.738281 C 9.785156 13.78125 9.664062 13.929688 9.691406 14.078125 C 9.652344 14.09375 9.617188 14.117188 9.601562 14.15625 C 9.554688 14.253906 9.550781 14.34375 9.566406 14.449219 C 9.578125 14.535156 9.621094 14.644531 9.699219 14.6875 C 9.683594 14.769531 9.691406 14.859375 9.707031 14.929688 C 9.714844 14.964844 9.730469 14.996094 9.753906 15.023438 C 9.765625 15.089844 9.796875 15.15625 9.839844 15.207031 C 9.855469 15.226562 9.875 15.238281 9.898438 15.246094 C 9.800781 15.410156 9.753906 15.632812 9.753906 15.792969 C 9.753906 16.023438 9.878906 16.441406 10.140625 16.453125 C 10.074219 16.792969 10.316406 17.203125 10.632812 17.375 C 10.613281 17.585938 10.71875 17.78125 10.871094 17.929688 C 10.949219 18.011719 11.074219 18.105469 11.1875 18.128906 C 11.265625 18.148438 11.332031 18.148438 11.394531 18.136719 C 11.425781 18.351562 11.550781 18.5625 11.703125 18.703125 C 11.820312 18.816406 12.082031 18.941406 12.300781 18.941406 C 12.296875 19.121094 12.453125 19.296875 12.648438 19.335938 C 12.746094 19.355469 12.847656 19.351562 12.949219 19.347656 C 13.023438 19.339844 13.125 19.300781 13.183594 19.234375 L 13.203125 19.246094 C 13.269531 19.703125 13.894531 20.078125 14.316406 19.867188 C 14.375 20.007812 14.496094 20.128906 14.648438 20.164062 C 14.875 20.21875 14.9375 20.066406 15.136719 20.042969 C 15.472656 20.007812 15.796875 20.074219 15.976562 19.792969 C 16.203125 20.011719 16.6875 19.886719 16.933594 19.769531 C 17.167969 19.65625 17.582031 19.304688 17.632812 18.972656 C 17.796875 18.960938 17.976562 18.886719 18.082031 18.835938 C 18.226562 18.769531 18.488281 18.558594 18.546875 18.351562 C 18.691406 18.363281 18.847656 18.316406 18.972656 18.257812 C 19.222656 18.144531 19.382812 17.890625 19.34375 17.621094 C 19.34375 17.613281 19.339844 17.605469 19.335938 17.597656 C 19.453125 17.554688 19.542969 17.46875 19.617188 17.355469 C 19.695312 17.242188 19.75 17.152344 19.863281 17.070312 C 19.9375 17.015625 20.023438 16.949219 20.0625 16.867188 C 20.199219 16.601562 20.304688 16.230469 20.207031 15.933594 C 20.359375 15.863281 20.429688 15.695312 20.46875 15.53125 C 20.507812 15.390625 20.535156 15.167969 20.46875 15.011719 C 20.574219 14.789062 20.59375 14.476562 20.460938 14.28125 Z M 16.949219 17.199219 C 16.9375 17.21875 16.925781 17.234375 16.914062 17.25 C 16.855469 17.277344 16.808594 17.316406 16.777344 17.363281 C 16.734375 17.433594 16.738281 17.503906 16.761719 17.570312 C 16.71875 17.589844 16.675781 17.613281 16.636719 17.640625 C 16.40625 17.808594 16.339844 18.039062 16.351562 18.28125 C 16.296875 18.28125 16.246094 18.296875 16.199219 18.320312 C 16.097656 18.324219 15.992188 18.347656 15.898438 18.390625 C 15.820312 18.425781 15.761719 18.480469 15.714844 18.542969 C 15.707031 18.523438 15.699219 18.503906 15.691406 18.484375 C 15.628906 18.34375 15.441406 18.285156 15.296875 18.285156 C 15.148438 18.28125 14.996094 18.363281 14.886719 18.457031 C 14.835938 18.496094 14.800781 18.539062 14.773438 18.585938 C 14.746094 18.558594 14.714844 18.535156 14.679688 18.511719 C 14.558594 18.429688 14.398438 18.421875 14.261719 18.453125 C 14.238281 18.457031 14.214844 18.464844 14.191406 18.476562 C 14.003906 18.203125 13.742188 17.957031 13.386719 18.035156 C 13.34375 18.042969 13.300781 18.0625 13.257812 18.082031 C 13.25 18.058594 13.238281 18.039062 13.222656 18.019531 C 13.214844 18.007812 13.203125 17.996094 13.191406 17.980469 C 13.203125 17.941406 13.214844 17.898438 13.21875 17.855469 C 13.320312 17.589844 13.351562 17.265625 13.148438 17.105469 C 13.160156 17.097656 13.171875 17.085938 13.179688 17.078125 C 13.777344 16.921875 14.347656 16.765625 14.996094 16.753906 C 15.734375 16.742188 16.320312 16.992188 16.953125 17.199219 C 16.953125 17.199219 16.949219 17.199219 16.949219 17.199219 Z M 16.949219 17.199219 "/>
</g>
</g>
<g clip-path="url(#clip42)" clip-rule="nonzero">
<g clip-path="url(#clip43)" clip-rule="nonzero">
<path style=" stroke:none;fill-rule:nonzero;fill:rgb(27.843137%,27.843137%,28.235294%);fill-opacity:1;" d="M 15.144531 8.203125 C 15.117188 8.121094 15.039062 8.109375 14.984375 8.140625 C 14.945312 8.054688 14.816406 8.019531 14.753906 8.121094 C 14.570312 8.417969 14.34375 8.65625 13.984375 8.691406 C 13.777344 8.714844 13.511719 8.597656 13.308594 8.636719 C 13.289062 8.542969 13.152344 8.496094 13.078125 8.597656 C 12.542969 9.3125 11.773438 9.644531 10.953125 9.171875 C 10.949219 9.171875 10.945312 9.171875 10.9375 9.167969 C 10.882812 9.039062 10.683594 9.074219 10.679688 9.222656 C 10.671875 9.585938 10.722656 9.953125 10.671875 10.320312 C 10.597656 10.839844 10.167969 11.347656 9.613281 11.007812 C 9.519531 10.714844 9.363281 10.457031 9.300781 10.152344 C 9.261719 9.976562 9.257812 9.785156 9.296875 9.609375 C 9.351562 9.386719 9.554688 9.363281 9.726562 9.265625 C 9.839844 9.203125 9.820312 9.023438 9.691406 8.992188 C 9.640625 8.976562 9.589844 8.972656 9.542969 8.972656 C 8.945312 8.230469 9.75 7.078125 10.582031 6.90625 C 10.613281 6.941406 10.660156 6.964844 10.722656 6.945312 C 10.808594 6.921875 10.902344 6.90625 10.992188 6.894531 C 11.105469 6.886719 11.210938 6.921875 11.328125 6.902344 C 11.441406 6.886719 11.453125 6.734375 11.390625 6.664062 C 11.332031 6.59375 11.25 6.558594 11.160156 6.542969 C 11.648438 5.878906 12.828125 5.945312 13.59375 6.089844 C 13.621094 6.105469 13.652344 6.113281 13.683594 6.105469 C 13.707031 6.113281 13.730469 6.117188 13.753906 6.121094 C 13.898438 6.152344 14.003906 5.941406 13.859375 5.871094 C 13.855469 5.871094 13.851562 5.867188 13.851562 5.867188 C 13.988281 5.597656 14.136719 5.441406 14.492188 5.34375 C 14.75 5.269531 14.996094 5.269531 15.25 5.277344 C 15.378906 5.320312 15.503906 5.378906 15.636719 5.421875 C 15.8125 5.46875 15.9375 5.589844 16.085938 5.683594 C 16.195312 5.746094 16.332031 5.640625 16.296875 5.519531 C 16.265625 5.410156 16.203125 5.328125 16.117188 5.261719 C 16.820312 5.246094 17.617188 5.734375 17.417969 6.515625 C 17.40625 6.554688 17.414062 6.589844 17.4375 6.617188 C 17.449219 6.671875 17.503906 6.71875 17.570312 6.699219 C 18.0625 6.539062 18.53125 6.503906 19.039062 6.628906 C 19.289062 6.6875 19.542969 6.8125 19.699219 7.023438 C 19.886719 7.277344 19.738281 7.539062 19.6875 7.804688 C 19.675781 7.847656 19.6875 7.886719 19.710938 7.917969 C 19.699219 7.980469 19.738281 8.046875 19.824219 8.050781 C 20.8125 8.070312 21.058594 9.246094 20.449219 9.894531 C 20.378906 9.96875 20.402344 10.117188 20.515625 10.140625 C 20.898438 10.21875 21.007812 10.519531 21 10.871094 C 20.996094 11.285156 20.765625 11.441406 20.386719 11.429688 C 20.171875 11.253906 20.105469 11.015625 20.136719 10.6875 C 20.144531 10.628906 20.089844 10.558594 20.035156 10.550781 C 19.164062 10.414062 18.5 9.8125 18.421875 8.921875 C 18.414062 8.828125 18.289062 8.78125 18.234375 8.847656 C 18.222656 8.761719 18.1875 8.699219 18.125 8.636719 C 18.074219 8.585938 18.015625 8.609375 17.980469 8.652344 C 17.96875 8.65625 17.957031 8.660156 17.941406 8.671875 C 17.140625 9.273438 15.546875 9.3125 15.144531 8.203125 Z M 15.144531 8.203125 "/>
</g>
</g>
<g clip-path="url(#clip44)" clip-rule="nonzero">
<g clip-path="url(#clip45)" clip-rule="nonzero">
<path style=" stroke:none;fill-rule:nonzero;fill:rgb(27.843137%,27.843137%,28.235294%);fill-opacity:1;" d="M 20.515625 10.140625 C 20.402344 10.117188 20.378906 9.96875 20.453125 9.894531 C 21.058594 9.246094 20.8125 8.070312 19.824219 8.050781 C 19.738281 8.046875 19.703125 7.980469 19.710938 7.917969 C 19.6875 7.886719 19.675781 7.847656 19.6875 7.804688 C 19.738281 7.539062 19.886719 7.277344 19.699219 7.023438 C 19.542969 6.8125 19.289062 6.6875 19.042969 6.628906 C 18.53125 6.503906 18.0625 6.539062 17.570312 6.699219 C 17.503906 6.71875 17.449219 6.671875 17.4375 6.617188 C 17.414062 6.589844 17.40625 6.554688 17.417969 6.515625 C 17.617188 5.734375 16.820312 5.246094 16.117188 5.261719 C 16.203125 5.328125 16.265625 5.410156 16.296875 5.519531 C 16.335938 5.640625 16.195312 5.746094 16.085938 5.683594 C 15.9375 5.589844 15.8125 5.46875 15.636719 5.421875 C 15.503906 5.378906 15.382812 5.320312 15.25 5.277344 C 15 5.269531 14.75 5.269531 14.492188 5.34375 C 14.136719 5.441406 13.988281 5.597656 13.851562 5.867188 C 13.851562 5.867188 13.855469 5.871094 13.859375 5.871094 C 14.003906 5.941406 13.898438 6.152344 13.753906 6.121094 C 13.730469 6.117188 13.707031 6.113281 13.683594 6.105469 C 13.652344 6.113281 13.621094 6.105469 13.59375 6.089844 C 12.828125 5.945312 11.648438 5.878906 11.160156 6.542969 C 11.25 6.558594 11.332031 6.59375 11.390625 6.664062 C 11.453125 6.734375 11.441406 6.886719 11.328125 6.902344 C 11.210938 6.921875 11.105469 6.886719 10.992188 6.894531 C 10.902344 6.90625 10.808594 6.921875 10.722656 6.945312 C 10.660156 6.964844 10.613281 6.941406 10.582031 6.90625 C 9.75 7.078125 8.945312 8.230469 9.542969 8.972656 C 9.589844 8.972656 9.640625 8.976562 9.691406 8.992188 C 9.820312 9.023438 9.839844 9.203125 9.726562 9.265625 C 9.554688 9.363281 9.351562 9.386719 9.296875 9.609375 C 9.257812 9.785156 9.261719 9.976562 9.300781 10.152344 C 9.367188 10.457031 9.519531 10.714844 9.613281 11.007812 C 10.167969 11.347656 10.597656 10.839844 10.671875 10.320312 C 10.722656 9.953125 10.671875 9.585938 10.679688 9.222656 C 10.683594 9.074219 10.882812 9.039062 10.9375 9.167969 C 10.945312 9.171875 10.949219 9.171875 10.953125 9.171875 C 11.773438 9.644531 12.542969 9.3125 13.078125 8.597656 C 13.152344 8.496094 13.289062 8.542969 13.308594 8.636719 C 13.511719 8.597656 13.777344 8.714844 13.984375 8.691406 C 14.34375 8.65625 14.570312 8.417969 14.753906 8.121094 C 14.816406 8.019531 14.945312 8.054688 14.984375 8.140625 C 15.039062 8.109375 15.117188 8.121094 15.144531 8.203125 C 15.546875 9.3125 17.140625 9.273438 17.941406 8.671875 C 17.957031 8.660156 17.96875 8.65625 17.984375 8.652344 C 18.015625 8.609375 18.074219 8.585938 18.125 8.636719 C 18.1875 8.699219 18.222656 8.761719 18.234375 8.847656 C 18.289062 8.78125 18.414062 8.828125 18.421875 8.921875 C 18.5 9.8125 19.164062 10.414062 20.035156 10.550781 C 20.089844 10.558594 20.144531 10.628906 20.136719 10.6875 C 20.105469 11.015625 20.171875 11.253906 20.386719 11.429688 C 20.765625 11.441406 20.996094 11.285156 21 10.871094 C 21.007812 10.519531 20.898438 10.21875 20.515625 10.140625 Z M 20.8125 9.929688 C 21.816406 10.421875 21.074219 12.332031 20.269531 11.707031 C 20.265625 11.703125 20.261719 11.703125 20.257812 11.699219 C 19.957031 11.523438 19.863281 11.1875 19.855469 10.820312 C 18.902344 10.722656 18.078125 9.953125 18.207031 8.953125 C 18.167969 8.980469 18.105469 8.972656 18.070312 8.9375 C 17.261719 9.847656 15.269531 9.597656 14.953125 8.351562 C 14.832031 8.710938 14.554688 8.941406 14.164062 9.011719 C 13.917969 9.054688 13.417969 9.054688 13.226562 8.839844 C 12.730469 9.628906 11.8125 9.960938 11.011719 9.46875 C 11.105469 9.957031 11.121094 10.542969 10.855469 10.941406 C 10.535156 11.425781 9.90625 11.597656 9.46875 11.167969 C 9.0625 10.972656 8.871094 10.25 8.890625 9.832031 C 8.902344 9.523438 9.054688 9.144531 9.332031 9.019531 C 8.628906 8.125 9.605469 6.644531 10.683594 6.644531 C 10.753906 6.601562 10.835938 6.570312 10.921875 6.550781 C 11.316406 5.703125 12.589844 5.503906 13.484375 5.738281 C 13.515625 5.402344 13.867188 5.121094 14.167969 4.992188 C 14.59375 4.8125 15.269531 4.726562 15.679688 4.988281 C 15.71875 5.011719 15.742188 5.050781 15.75 5.089844 C 15.75 5.089844 15.753906 5.09375 15.753906 5.09375 C 16.617188 4.835938 17.757812 5.402344 17.699219 6.347656 C 18.195312 6.085938 18.949219 6.175781 19.414062 6.382812 C 19.960938 6.628906 20.355469 7.253906 20.027344 7.800781 C 21.085938 7.832031 21.394531 9.140625 20.8125 9.929688 Z M 20.8125 9.929688 "/>
</g>
</g>
<g clip-path="url(#clip46)" clip-rule="nonzero">
<g clip-path="url(#clip47)" clip-rule="nonzero">
<path style=" stroke:none;fill-rule:nonzero;fill:rgb(27.843137%,27.843137%,28.235294%);fill-opacity:1;" d="M 9.824219 11.480469 C 9.882812 11.582031 9.933594 11.679688 9.984375 11.78125 C 10.132812 12.179688 10.292969 12.898438 10.109375 12.910156 C 10.003906 12.914062 9.933594 13.082031 10.050781 13.132812 C 10.5 13.328125 10.621094 12.820312 10.617188 12.480469 C 10.613281 12.09375 10.472656 11.484375 10.191406 11.199219 C 10.003906 11.007812 9.6875 11.25 9.824219 11.480469 Z M 9.824219 11.480469 "/>
</g>
</g>
<g clip-path="url(#clip48)" clip-rule="nonzero">
<g clip-path="url(#clip49)" clip-rule="nonzero">
<path style=" stroke:none;fill-rule:nonzero;fill:rgb(27.843137%,27.843137%,28.235294%);fill-opacity:1;" d="M 20.300781 13.160156 C 19.921875 12.628906 20.375 12.257812 20.328125 11.710938 C 20.3125 11.507812 20.011719 11.375 19.90625 11.597656 C 19.605469 12.226562 19.425781 12.886719 19.90625 13.464844 C 20.085938 13.683594 20.464844 13.394531 20.300781 13.160156 Z M 20.300781 13.160156 "/>
</g>
</g>
</g>
</svg>
