<?xml version="1.0" encoding="UTF-8"?>
<svg xmlns="http://www.w3.org/2000/svg" xmlns:xlink="http://www.w3.org/1999/xlink" width="30px" height="30px" viewBox="0 0 30 30" version="1.1">
<g id="surface1">
<path style=" stroke:none;fill-rule:nonzero;fill:rgb(98.823529%,73.333333%,16.078431%);fill-opacity:1;" d="M 15 13.742188 C 15.695312 13.742188 16.257812 14.304688 16.257812 15 C 16.257812 15.695312 15.695312 16.257812 15 16.257812 C 14.304688 16.257812 13.742188 15.695312 13.742188 15 C 13.742188 14.304688 14.304688 13.742188 15 13.742188 Z M 15 13.742188 "/>
<path style=" stroke:none;fill-rule:nonzero;fill:rgb(98.823529%,73.333333%,16.078431%);fill-opacity:1;" d="M 12.640625 17.636719 C 13.070312 18.957031 12.9375 20.375 12.332031 21.574219 C 12.28125 21.667969 12.230469 21.761719 12.179688 21.851562 C 9.453125 20.738281 7.527344 18.058594 7.527344 14.933594 C 7.527344 14.636719 7.546875 14.34375 7.578125 14.058594 C 7.734375 14.054688 7.886719 14.058594 8.039062 14.066406 C 9.335938 14.148438 10.582031 14.71875 11.496094 15.695312 C 11.757812 15.980469 11.996094 16.296875 12.199219 16.644531 C 12.382812 16.964844 12.527344 17.296875 12.640625 17.636719 Z M 12.640625 17.636719 "/>
<path style=" stroke:none;fill-rule:nonzero;fill:rgb(98.823529%,73.333333%,16.078431%);fill-opacity:1;" d="M 22.421875 14.058594 C 22.453125 14.34375 22.472656 14.636719 22.472656 14.933594 C 22.472656 18.058594 20.546875 20.738281 17.820312 21.851562 C 17.765625 21.761719 17.714844 21.667969 17.667969 21.574219 L 17.667969 21.570312 C 17.058594 20.371094 16.929688 18.953125 17.363281 17.628906 C 17.472656 17.292969 17.617188 16.960938 17.800781 16.644531 C 18.003906 16.296875 18.238281 15.980469 18.503906 15.695312 C 19.414062 14.722656 20.648438 14.15625 21.9375 14.070312 C 22.097656 14.058594 22.257812 14.054688 22.421875 14.058594 Z M 22.421875 14.058594 "/>
<path style=" stroke:none;fill-rule:nonzero;fill:rgb(98.823529%,73.333333%,16.078431%);fill-opacity:1;" d="M 19.539062 8.996094 C 19.453125 9.152344 19.363281 9.300781 19.265625 9.441406 C 18.332031 10.808594 16.765625 11.707031 14.988281 11.707031 C 13.027344 11.707031 11.324219 10.617188 10.445312 9.007812 C 11.707031 8.039062 13.285156 7.460938 15 7.460938 C 16.707031 7.460938 18.28125 8.035156 19.539062 8.996094 Z M 19.539062 8.996094 "/>
<path style=" stroke:none;fill-rule:nonzero;fill:rgb(98.823529%,73.333333%,16.078431%);fill-opacity:1;" d="M 15 0 C 23.285156 0 30 6.714844 30 15 C 30 23.285156 23.285156 30 15 30 C 6.714844 30 0 23.285156 0 15 C 0 6.714844 6.714844 0 15 0 Z M 15 0 "/>
<path style="fill:none;stroke-width:15;stroke-linecap:butt;stroke-linejoin:round;stroke:rgb(20%,20%,20%);stroke-opacity:1;stroke-miterlimit:10;" d="M 304.8 377.533333 L 304.8 377.533333 " transform="matrix(0.0585938,0,0,0.0585938,0,0)"/>
<path style=" stroke:none;fill-rule:nonzero;fill:rgb(30.196078%,30.196078%,30.196078%);fill-opacity:1;" d="M 15 23.09375 C 10.535156 23.09375 6.90625 19.464844 6.90625 15 C 6.90625 10.535156 10.535156 6.90625 15 6.90625 C 19.464844 6.90625 23.09375 10.535156 23.09375 15 C 23.09375 19.464844 19.464844 23.09375 15 23.09375 Z M 15 8.039062 C 11.160156 8.039062 8.039062 11.160156 8.039062 15 C 8.039062 18.839844 11.160156 21.960938 15 21.960938 C 18.839844 21.960938 21.960938 18.839844 21.960938 15 C 21.960938 11.160156 18.839844 8.039062 15 8.039062 Z M 15 8.039062 "/>
<path style=" stroke:none;fill-rule:nonzero;fill:rgb(30.196078%,30.196078%,30.196078%);fill-opacity:1;" d="M 17.820312 21.851562 C 18.257812 22.601562 18.890625 23.246094 19.695312 23.710938 C 21.222656 24.59375 23.007812 24.605469 24.488281 23.910156 C 21.953125 25.945312 18.328125 26.332031 15.339844 24.605469 C 15.226562 24.539062 15.109375 24.46875 15 24.398438 C 14.886719 24.46875 14.773438 24.539062 14.65625 24.605469 C 11.671875 26.332031 8.046875 25.945312 5.511719 23.910156 C 6.992188 24.605469 8.777344 24.59375 10.304688 23.710938 C 11.109375 23.246094 11.742188 22.601562 12.179688 21.851562 C 12.230469 21.761719 12.28125 21.667969 12.332031 21.574219 C 12.9375 20.375 13.070312 18.957031 12.640625 17.636719 C 12.527344 17.296875 12.382812 16.964844 12.199219 16.644531 C 11.996094 16.296875 11.757812 15.980469 11.496094 15.695312 C 10.582031 14.71875 9.335938 14.148438 8.039062 14.066406 C 7.886719 14.058594 7.734375 14.054688 7.578125 14.058594 C 6.746094 14.082031 5.902344 14.304688 5.128906 14.75 C 3.605469 15.632812 2.699219 17.171875 2.5625 18.804688 C 2.070312 15.589844 3.546875 12.257812 6.53125 10.53125 C 6.648438 10.464844 6.761719 10.402344 6.878906 10.34375 C 6.867188 10.183594 6.863281 10.019531 6.863281 9.855469 C 6.863281 6.40625 9.011719 3.460938 12.042969 2.28125 C 10.695312 3.214844 9.816406 4.769531 9.816406 6.53125 C 9.816406 7.429688 10.042969 8.273438 10.445312 9.007812 C 11.324219 10.617188 13.027344 11.707031 14.988281 11.707031 C 16.765625 11.707031 18.332031 10.808594 19.265625 9.441406 C 19.363281 9.300781 19.453125 9.152344 19.539062 8.996094 C 19.9375 8.265625 20.164062 7.425781 20.164062 6.53125 C 20.164062 4.769531 19.28125 3.214844 17.9375 2.28125 C 20.96875 3.460938 23.113281 6.40625 23.113281 9.855469 C 23.113281 10.015625 23.109375 10.175781 23.101562 10.332031 C 23.222656 10.398438 23.34375 10.464844 23.46875 10.53125 C 26.453125 12.257812 27.929688 15.589844 27.4375 18.804688 C 27.300781 17.171875 26.394531 15.632812 24.867188 14.75 C 24.097656 14.304688 23.253906 14.082031 22.421875 14.058594 C 22.257812 14.054688 22.097656 14.058594 21.9375 14.070312 C 20.648438 14.15625 19.414062 14.722656 18.503906 15.695312 C 18.238281 15.980469 18.003906 16.296875 17.800781 16.644531 C 17.617188 16.960938 17.472656 17.292969 17.363281 17.628906 C 16.929688 18.953125 17.058594 20.371094 17.667969 21.570312 L 17.667969 21.574219 C 17.714844 21.667969 17.765625 21.761719 17.820312 21.851562 Z M 16.257812 15 C 16.257812 14.304688 15.695312 13.742188 15 13.742188 C 14.304688 13.742188 13.742188 14.304688 13.742188 15 C 13.742188 15.695312 14.304688 16.257812 15 16.257812 C 15.695312 16.257812 16.257812 15.695312 16.257812 15 Z M 16.257812 15 "/>
</g>
</svg>
