<?xml version="1.0" encoding="UTF-8"?>
<svg xmlns="http://www.w3.org/2000/svg" xmlns:xlink="http://www.w3.org/1999/xlink" width="30px" height="30px" viewBox="0 0 30 30" version="1.1">
<defs>
<filter id="alpha" filterUnits="objectBoundingBox" x="0%" y="0%" width="100%" height="100%">
  <feColorMatrix type="matrix" in="SourceGraphic" values="0 0 0 0 1 0 0 0 0 1 0 0 0 0 1 0 0 0 1 0"/>
</filter>
<mask id="mask0">
  <g filter="url(#alpha)">
<rect x="0" y="0" width="30" height="30" style="fill:rgb(0%,0%,0%);fill-opacity:0.2;stroke:none;"/>
  </g>
</mask>
<clipPath id="clip1">
  <rect x="0" y="0" width="30" height="30"/>
</clipPath>
<g id="surface5" clip-path="url(#clip1)">
<path style=" stroke:none;fill-rule:nonzero;fill:rgb(13.72549%,12.156863%,12.54902%);fill-opacity:1;" d="M 20.625 25.3125 C 20.625 26.109375 20.015625 26.71875 19.21875 26.71875 L 10.78125 26.71875 C 9.984375 26.71875 9.375 26.109375 9.375 25.3125 L 9.375 6.5625 C 9.375 5.765625 9.984375 5.15625 10.78125 5.15625 L 19.21875 5.15625 C 20.015625 5.15625 20.625 5.765625 20.625 6.5625 Z M 20.625 25.3125 "/>
</g>
<mask id="mask1">
  <g filter="url(#alpha)">
<rect x="0" y="0" width="30" height="30" style="fill:rgb(0%,0%,0%);fill-opacity:0.2;stroke:none;"/>
  </g>
</mask>
<clipPath id="clip2">
  <rect x="0" y="0" width="30" height="30"/>
</clipPath>
<g id="surface8" clip-path="url(#clip2)">
<path style=" stroke:none;fill-rule:nonzero;fill:rgb(13.72549%,12.156863%,12.54902%);fill-opacity:1;" d="M 17.34375 15.9375 C 17.34375 17.230469 16.292969 18.28125 15 18.28125 C 13.707031 18.28125 12.65625 17.230469 12.65625 15.9375 C 12.65625 14.644531 13.707031 13.59375 15 13.59375 C 16.292969 13.59375 17.34375 14.644531 17.34375 15.9375 Z M 17.34375 15.9375 "/>
</g>
<mask id="mask2">
  <g filter="url(#alpha)">
<rect x="0" y="0" width="30" height="30" style="fill:rgb(0%,0%,0%);fill-opacity:0.2;stroke:none;"/>
  </g>
</mask>
<clipPath id="clip3">
  <rect x="0" y="0" width="30" height="30"/>
</clipPath>
<g id="surface11" clip-path="url(#clip3)">
<path style=" stroke:none;fill-rule:nonzero;fill:rgb(13.72549%,12.156863%,12.54902%);fill-opacity:1;" d="M 17.34375 9.84375 C 17.34375 11.136719 16.292969 12.1875 15 12.1875 C 13.707031 12.1875 12.65625 11.136719 12.65625 9.84375 C 12.65625 8.550781 13.707031 7.5 15 7.5 C 16.292969 7.5 17.34375 8.550781 17.34375 9.84375 Z M 17.34375 9.84375 "/>
</g>
<mask id="mask3">
  <g filter="url(#alpha)">
<rect x="0" y="0" width="30" height="30" style="fill:rgb(0%,0%,0%);fill-opacity:0.2;stroke:none;"/>
  </g>
</mask>
<clipPath id="clip4">
  <rect x="0" y="0" width="30" height="30"/>
</clipPath>
<g id="surface14" clip-path="url(#clip4)">
<path style=" stroke:none;fill-rule:nonzero;fill:rgb(13.72549%,12.156863%,12.54902%);fill-opacity:1;" d="M 17.34375 22.03125 C 17.34375 23.324219 16.292969 24.375 15 24.375 C 13.707031 24.375 12.65625 23.324219 12.65625 22.03125 C 12.65625 20.738281 13.707031 19.6875 15 19.6875 C 16.292969 19.6875 17.34375 20.738281 17.34375 22.03125 Z M 17.34375 22.03125 "/>
</g>
</defs>
<g id="surface1">
<path style=" stroke:none;fill-rule:nonzero;fill:rgb(46.666667%,70.196078%,83.137255%);fill-opacity:1;" d="M 30 15 C 30 23.285156 23.285156 30 15 30 C 6.714844 30 0 23.285156 0 15 C 0 6.714844 6.714844 0 15 0 C 23.285156 0 30 6.714844 30 15 Z M 30 15 "/>
<use xlink:href="#surface5" mask="url(#mask0)"/>
<path style=" stroke:none;fill-rule:nonzero;fill:rgb(30.980392%,36.470588%,45.098039%);fill-opacity:1;" d="M 20.625 24.375 C 20.625 25.171875 20.015625 25.78125 19.21875 25.78125 L 10.78125 25.78125 C 9.984375 25.78125 9.375 25.171875 9.375 24.375 L 9.375 5.625 C 9.375 4.828125 9.984375 4.21875 10.78125 4.21875 L 19.21875 4.21875 C 20.015625 4.21875 20.625 4.828125 20.625 5.625 Z M 20.625 24.375 "/>
<use xlink:href="#surface8" mask="url(#mask1)"/>
<use xlink:href="#surface11" mask="url(#mask2)"/>
<use xlink:href="#surface14" mask="url(#mask3)"/>
<path style=" stroke:none;fill-rule:nonzero;fill:rgb(96.078431%,81.176471%,52.941176%);fill-opacity:1;" d="M 17.34375 15 C 17.34375 16.292969 16.292969 17.34375 15 17.34375 C 13.707031 17.34375 12.65625 16.292969 12.65625 15 C 12.65625 13.707031 13.707031 12.65625 15 12.65625 C 16.292969 12.65625 17.34375 13.707031 17.34375 15 Z M 17.34375 15 "/>
<path style=" stroke:none;fill-rule:nonzero;fill:rgb(78.039216%,36.078431%,36.078431%);fill-opacity:1;" d="M 17.34375 8.90625 C 17.34375 10.199219 16.292969 11.25 15 11.25 C 13.707031 11.25 12.65625 10.199219 12.65625 8.90625 C 12.65625 7.613281 13.707031 6.5625 15 6.5625 C 16.292969 6.5625 17.34375 7.613281 17.34375 8.90625 Z M 17.34375 8.90625 "/>
<path style=" stroke:none;fill-rule:nonzero;fill:rgb(46.27451%,76.078431%,68.627451%);fill-opacity:1;" d="M 17.34375 21.09375 C 17.34375 22.386719 16.292969 23.4375 15 23.4375 C 13.707031 23.4375 12.65625 22.386719 12.65625 21.09375 C 12.65625 19.800781 13.707031 18.75 15 18.75 C 16.292969 18.75 17.34375 19.800781 17.34375 21.09375 Z M 17.34375 21.09375 "/>
</g>
</svg>
